<svg width="80" height="65" fill="none" xmlns="http://www.w3.org/2000/svg"><path d="M72.983 35.605v1.456l-.174 1.55c-.379 3.358-1.37 6.342-2.851 8.96l-.742 1.31-.836 1.117C62.785 57.47 52.387 61.738 40 61.738c-12.39 0-22.784-4.268-28.38-11.74l-.837-1.118-.74-1.31c-1.482-2.617-2.474-5.602-2.854-8.96l-.172-1.518v-1.486a3.535 3.535 0 0 0-.005-.186c.006-5.458 1.52-10.412 4.15-14.635l.588-.943-.306-1.068c-1.037-3.617-.614-7.995.184-11.673.305-1.405.653-2.66.965-3.669.611.3 1.307.653 2.051 1.049 2.582 1.374 5.59 3.192 7.715 5.103l1.045.939 1.345-.404C29.201 8.783 34.34 8.384 40 8.384c5.605 0 10.724.458 15.172 1.8l1.354.409 1.047-.95c2.118-1.922 5.14-3.753 7.743-5.141a70.54 70.54 0 0 1 2.09-1.07c.312 1.008.66 2.263.965 3.668.797 3.677 1.22 8.055.185 11.672l-.306 1.068.588.943c2.636 4.229 4.147 9.191 4.148 14.665v.02c-.001.02-.003.076-.003.137Z" stroke="#614A30" stroke-width="5"/></svg>