<svg width="138" height="63" viewBox="0 0 1843 851" fill="none" xmlns="http://www.w3.org/2000/svg">
<path d="M752.93 388.917L800 377.784L792.725 347.095L754.834 356.055C754.834 355.542 754.859 355.053 754.859 354.541C754.859 295.044 738.405 240.82 709.595 194.605C733.717 110.327 688.598 0 688.598 0C688.598 0 605.958 35.2547 558.936 77.9062C511.108 63.4781 457.153 58.8391 400 58.8391C342.553 58.8391 288.306 62.8437 240.308 77.2469C193.189 34.8891 111.402 0 111.402 0C111.402 0 66.2594 110.353 90.4047 194.63C61.6203 240.845 45.1172 295.069 45.1172 354.542C45.1172 355.055 45.1656 355.544 45.1656 356.056L7.275 347.097L0 377.784L47.0453 388.917C51.2203 425.758 62.1578 458.839 78.6609 488.014L20.1172 511.427L31.8109 540.723L96.1906 514.967C158.373 598 271.142 642.384 400 642.384C528.833 642.384 641.627 598 703.809 514.967L768.189 540.723L779.883 511.427L721.338 488.014C737.842 458.839 748.78 425.758 752.93 388.917Z" fill="black"/>
<path d="M145.938 249.695C150.234 250.216 154.141 250.607 157.656 250.867C161.042 251.128 163.971 251.388 166.445 251.648C169.31 251.909 171.849 252.104 174.062 252.234C176.406 252.234 179.401 252.169 183.047 252.039C186.172 251.909 190.143 251.714 194.961 251.453C199.779 251.193 205.703 250.737 212.734 250.086C209.349 252.039 206.549 253.992 204.336 255.945C202.253 257.898 200.625 259.656 199.453 261.219C198.021 263.042 196.979 264.865 196.328 266.688C195.938 269.161 196.068 273.979 196.719 281.141C196.979 284.135 197.37 287.846 197.891 292.273C198.542 296.57 199.323 301.714 200.234 307.703C201.276 313.562 202.513 320.333 203.945 328.016C205.508 335.698 207.266 344.422 209.219 354.188C211.823 346.766 213.971 340.19 215.664 334.461C217.357 328.602 218.789 323.589 219.961 319.422C221.263 314.734 222.37 310.568 223.281 306.922C224.193 303.146 225.299 298.263 226.602 292.273C227.643 287.195 229.01 280.62 230.703 272.547C232.396 264.474 234.479 254.513 236.953 242.664L243.984 243.641C244.635 252.885 245.286 261.023 245.938 268.055C246.719 275.086 247.37 281.076 247.891 286.023C248.411 291.753 248.932 296.701 249.453 300.867C249.974 304.643 250.755 309.005 251.797 313.953C252.708 318.12 253.88 323.263 255.312 329.383C256.745 335.372 258.633 342.143 260.977 349.695C263.32 340.451 265.404 332.182 267.227 324.891C269.18 317.599 270.807 311.154 272.109 305.555C273.542 299.956 274.714 295.138 275.625 291.102C276.667 287.065 277.513 283.68 278.164 280.945C279.596 274.435 280.443 270.073 280.703 267.859C280.573 265.385 279.987 262.977 278.945 260.633C278.034 258.549 276.602 256.271 274.648 253.797C272.695 251.323 269.831 248.914 266.055 246.57C273.997 246.831 280.443 247.026 285.391 247.156C290.469 247.156 294.505 247.156 297.5 247.156H305.312H312.344C314.948 247.156 318.333 247.156 322.5 247.156C326.797 247.026 332.266 246.831 338.906 246.57C333.177 249.565 328.555 252.299 325.039 254.773C321.523 257.247 318.789 259.331 316.836 261.023C314.492 263.107 312.799 264.865 311.758 266.297C310.716 268.901 309.023 274.76 306.68 283.875C305.638 287.781 304.466 292.664 303.164 298.523C301.862 304.253 300.299 311.154 298.477 319.227C296.784 327.299 294.831 336.74 292.617 347.547C290.404 358.224 287.93 370.464 285.195 384.266L251.406 380.75L236.953 320.008C234.74 331.076 232.982 340.06 231.68 346.961C230.378 353.732 229.401 359.005 228.75 362.781C227.969 367.339 227.513 370.659 227.383 372.742C227.253 374.565 227.122 376.323 226.992 378.016C226.862 379.448 226.667 381.01 226.406 382.703C226.276 384.396 226.081 385.958 225.82 387.391H191.25C187.865 372.547 184.805 359.461 182.07 348.133C179.466 336.674 177.122 326.648 175.039 318.055C172.956 309.461 171.133 302.169 169.57 296.18C168.138 290.19 166.836 285.177 165.664 281.141C163.06 271.766 161.172 265.971 160 263.758C159.089 262.716 157.917 261.479 156.484 260.047C155.312 258.875 153.88 257.443 152.188 255.75C150.365 253.927 148.281 251.909 145.938 249.695ZM346.875 253.602C355.99 253.862 363.542 254.057 369.531 254.188C375.651 254.188 380.599 254.188 384.375 254.188H394.727H452.93C453.19 256.792 453.385 259.331 453.516 261.805C453.776 264.148 453.906 266.232 453.906 268.055C453.906 270.268 453.841 272.286 453.711 274.109C453.581 275.932 453.385 277.885 453.125 279.969C452.865 281.792 452.604 283.745 452.344 285.828C452.083 287.911 451.628 290.06 450.977 292.273C449.154 285.242 446.68 279.904 443.555 276.258C440.56 272.612 437.5 269.943 434.375 268.25C430.729 266.297 426.888 265.255 422.852 265.125C417.513 265.385 413.346 265.841 410.352 266.492C407.357 267.143 405.013 268.055 403.32 269.227C401.628 270.398 400.326 271.766 399.414 273.328C398.633 274.76 397.786 276.388 396.875 278.211C396.094 279.773 395.378 282.182 394.727 285.438C394.076 288.172 393.424 291.883 392.773 296.57C392.253 301.258 391.667 307.312 391.016 314.734C394.531 313.693 397.331 312.716 399.414 311.805C401.628 310.893 403.385 310.112 404.688 309.461C406.12 308.68 407.161 307.964 407.812 307.312C408.333 306.531 409.115 305.099 410.156 303.016C410.938 301.193 411.979 298.719 413.281 295.594C414.714 292.469 416.406 288.172 418.359 282.703C418.62 288.693 418.75 293.706 418.75 297.742C418.75 301.648 418.815 304.839 418.945 307.312C418.945 310.177 419.01 312.456 419.141 314.148V321.57C419.141 324.305 419.141 328.016 419.141 332.703C419.271 337.26 419.466 343.055 419.727 350.086C418.164 345.268 416.732 341.492 415.43 338.758C414.258 335.893 413.216 333.745 412.305 332.312C411.263 330.62 410.352 329.448 409.57 328.797C408.659 328.536 407.422 328.276 405.859 328.016C404.427 327.885 402.604 327.82 400.391 327.82C398.307 327.82 395.638 328.146 392.383 328.797C391.992 335.958 391.927 341.753 392.188 346.18C392.578 350.477 393.099 353.797 393.75 356.141C394.401 358.875 395.182 360.828 396.094 362C397.266 363.172 399.609 364.148 403.125 364.93C406.641 365.581 410.612 365.841 415.039 365.711C419.596 365.451 424.219 364.669 428.906 363.367C433.594 362.065 437.76 359.917 441.406 356.922C444.141 354.448 447.07 351.323 450.195 347.547C452.799 344.292 455.664 340.19 458.789 335.242C462.044 330.294 465.234 324.305 468.359 317.273C467.839 323.133 467.448 328.016 467.188 331.922C467.057 335.698 466.862 338.758 466.602 341.102C466.341 343.836 466.146 345.919 466.016 347.352C466.016 348.914 465.82 351.128 465.43 353.992C465.169 356.466 464.714 359.852 464.062 364.148C463.542 368.315 462.826 373.654 461.914 380.164C455.794 380.294 450 380.424 444.531 380.555C439.062 380.555 434.245 380.62 430.078 380.75C425.13 380.88 420.573 381.01 416.406 381.141C412.109 381.141 407.357 381.336 402.148 381.727C397.591 381.987 392.188 382.378 385.938 382.898C379.818 383.419 373.047 384.135 365.625 385.047C366.276 376.193 366.732 367.859 366.992 360.047C367.383 352.104 367.643 345.138 367.773 339.148C367.904 332.117 367.904 325.607 367.773 319.617C368.424 304.643 368.164 292.534 366.992 283.289C365.82 274.044 364.453 268.12 362.891 265.516C362.109 264.604 361.003 263.497 359.57 262.195C358.398 261.154 356.771 259.917 354.688 258.484C352.604 257.052 350 255.424 346.875 253.602ZM509.531 247.352C513.698 248.393 517.669 249.174 521.445 249.695C525.221 250.216 528.542 250.607 531.406 250.867C534.792 251.258 537.917 251.388 540.781 251.258C544.427 251.258 548.984 250.932 554.453 250.281C560.052 249.63 565.781 249.044 571.641 248.523C577.5 247.872 583.099 247.482 588.438 247.352C593.906 247.091 598.333 247.417 601.719 248.328C605.104 249.109 608.555 250.346 612.07 252.039C615.716 253.602 619.036 255.62 622.031 258.094C625.026 260.438 627.5 263.237 629.453 266.492C631.406 269.617 632.513 273.198 632.773 277.234C632.643 282.312 631.471 287.065 629.258 291.492C627.435 295.268 624.375 299.174 620.078 303.211C615.781 307.117 609.596 310.112 601.523 312.195C605.56 312.716 609.01 313.628 611.875 314.93C614.87 316.102 617.409 317.534 619.492 319.227C621.706 320.789 623.464 322.547 624.766 324.5C626.198 326.453 627.305 328.406 628.086 330.359C630.039 334.917 630.951 339.995 630.82 345.594C630.039 352.885 628.542 358.68 626.328 362.977C624.245 367.273 621.836 370.594 619.102 372.938C616.367 375.281 613.568 376.909 610.703 377.82C607.839 378.732 605.234 379.448 602.891 379.969C600.547 380.49 597.682 380.75 594.297 380.75C590.911 380.75 587.266 380.685 583.359 380.555C579.583 380.294 575.677 380.099 571.641 379.969C567.604 379.708 563.763 379.708 560.117 379.969C557.122 380.229 553.477 380.49 549.18 380.75C545.534 381.01 540.977 381.336 535.508 381.727C530.039 381.987 523.659 382.312 516.367 382.703C517.799 381.661 518.971 380.49 519.883 379.188C520.924 377.755 521.771 376.518 522.422 375.477C523.073 374.174 523.659 372.938 524.18 371.766C524.57 370.724 524.896 367.859 525.156 363.172C525.417 358.484 525.612 352.885 525.742 346.375C525.872 339.734 525.938 332.638 525.938 325.086C526.068 317.404 526.003 310.047 525.742 303.016C525.612 295.854 525.352 289.539 524.961 284.07C524.701 278.471 524.31 274.435 523.789 271.961C523.008 269.227 521.966 266.427 520.664 263.562C519.622 261.089 518.125 258.419 516.172 255.555C514.349 252.69 512.135 249.956 509.531 247.352ZM550.742 267.273C550.742 267.794 550.807 269.552 550.938 272.547C551.068 275.151 551.198 279.188 551.328 284.656C551.589 289.995 551.914 297.612 552.305 307.508C555.56 308.94 558.75 309.721 561.875 309.852C565 309.852 567.799 309.721 570.273 309.461C573.138 309.07 575.872 308.419 578.477 307.508C581.992 306.076 584.727 303.732 586.68 300.477C588.763 297.221 590.13 293.836 590.781 290.32C591.562 286.674 591.758 283.289 591.367 280.164C590.977 276.909 590.13 274.565 588.828 273.133C586.354 270.919 583.294 269.096 579.648 267.664C576.523 266.492 572.552 265.711 567.734 265.32C563.047 264.799 557.383 265.451 550.742 267.273ZM549.766 359.852C554.583 362.326 558.815 363.953 562.461 364.734C566.107 365.516 569.167 365.906 571.641 365.906C574.505 365.906 576.979 365.516 579.062 364.734C581.536 363.562 583.945 362 586.289 360.047C588.763 357.964 590.586 355.555 591.758 352.82C593.06 349.956 593.581 346.831 593.32 343.445C593.06 339.93 591.562 336.089 588.828 331.922C586.354 328.927 583.359 326.583 579.844 324.891C576.719 323.458 572.747 322.547 567.93 322.156C563.242 321.766 557.448 322.872 550.547 325.477L549.766 359.852Z" fill="white"/>
<path d="M831.969 244.422C836.135 245.073 839.911 245.659 843.297 246.18C846.682 246.57 849.612 246.896 852.086 247.156C854.951 247.547 857.49 247.872 859.703 248.133C862.438 248.523 866.539 248.068 872.008 246.766C877.477 245.333 883.466 244.031 889.977 242.859C896.617 241.557 903.388 240.841 910.289 240.711C917.19 240.451 923.505 241.688 929.234 244.422C934.964 247.156 939.651 249.891 943.297 252.625C946.943 255.359 949.807 258.289 951.891 261.414C954.104 264.409 955.667 267.599 956.578 270.984C957.49 274.37 958.01 278.081 958.141 282.117C958.01 288.107 956.578 293.901 953.844 299.5C952.672 301.844 951.109 304.318 949.156 306.922C947.333 309.396 945.055 311.805 942.32 314.148C939.586 316.492 936.331 318.706 932.555 320.789C928.909 322.872 924.612 324.695 919.664 326.258C924.482 327.69 928.453 329.383 931.578 331.336C934.833 333.289 937.438 335.112 939.391 336.805C941.734 338.888 943.492 340.906 944.664 342.859C946.096 345.594 947.073 347.938 947.594 349.891C948.115 351.844 948.44 353.732 948.57 355.555C948.831 357.247 949.156 359.005 949.547 360.828C949.938 362.651 950.784 364.734 952.086 367.078C953.128 368.901 954.365 370.789 955.797 372.742C957.099 374.435 958.596 376.258 960.289 378.211C962.112 380.164 964.326 382.052 966.93 383.875C963.284 384.005 959.898 384.07 956.773 384.07C953.779 384.07 951.174 384.07 948.961 384.07C946.357 384.07 943.883 384.005 941.539 383.875C939.195 383.745 936.266 383.68 932.75 383.68C929.755 383.68 925.914 383.68 921.227 383.68C916.669 383.68 911.135 383.745 904.625 383.875C907.49 381.661 909.833 379.448 911.656 377.234C913.479 375.021 914.911 373.003 915.953 371.18C917.125 369.096 917.971 367.078 918.492 365.125C919.143 361.609 919.208 357.964 918.688 354.188C918.297 350.932 917.255 347.352 915.562 343.445C913.87 339.409 911.135 335.372 907.359 331.336C903.583 331.987 900.393 332.508 897.789 332.898C895.315 333.159 893.167 333.419 891.344 333.68C889.26 333.94 887.568 334.135 886.266 334.266C885.094 334.396 883.792 334.526 882.359 334.656C881.188 334.786 879.885 334.982 878.453 335.242C877.151 335.372 875.914 335.568 874.742 335.828C874.482 341.427 874.482 346.31 874.742 350.477C875.003 354.513 875.328 357.898 875.719 360.633C876.24 363.888 876.826 366.688 877.477 369.031C878.128 371.375 879.039 373.654 880.211 375.867C881.122 377.69 882.294 379.643 883.727 381.727C885.159 383.68 886.786 385.307 888.609 386.609C885.224 386.609 881.969 386.609 878.844 386.609C875.849 386.609 873.115 386.544 870.641 386.414C867.776 386.414 865.042 386.349 862.438 386.219C859.833 386.089 856.904 386.023 853.648 386.023C850.914 386.023 847.659 386.023 843.883 386.023C840.237 386.023 836.266 386.089 831.969 386.219C835.354 382.703 838.023 379.708 839.977 377.234C841.93 374.76 843.427 372.677 844.469 370.984C845.641 369.161 846.357 367.599 846.617 366.297C846.878 364.214 847.073 360.503 847.203 355.164C847.464 349.695 847.659 343.445 847.789 336.414C847.919 329.383 847.984 322.026 847.984 314.344C847.984 306.661 847.919 299.5 847.789 292.859C847.659 286.089 847.529 280.294 847.398 275.477C847.268 270.659 847.138 267.599 847.008 266.297C846.617 263.953 845.771 261.609 844.469 259.266C843.427 257.182 841.93 254.839 839.977 252.234C838.023 249.63 835.354 247.026 831.969 244.422ZM905.797 313.172C907.099 312.391 908.206 311.609 909.117 310.828C910.029 310.047 910.81 308.81 911.461 307.117C912.112 305.294 912.633 302.755 913.023 299.5C913.544 296.245 914.13 291.818 914.781 286.219C915.302 280.62 914.911 275.997 913.609 272.352C912.438 268.706 910.81 265.841 908.727 263.758C906.773 261.544 904.56 260.047 902.086 259.266C899.742 258.354 897.659 257.898 895.836 257.898C892.19 257.898 888.609 259.005 885.094 261.219C881.578 263.432 878.909 266.427 877.086 270.203C876.435 271.896 875.849 274.695 875.328 278.602C874.938 281.987 874.677 286.674 874.547 292.664C874.417 298.654 874.612 306.531 875.133 316.297C880.081 317.078 884.443 317.404 888.219 317.273C891.995 317.013 895.185 316.557 897.789 315.906C900.914 315.255 903.583 314.344 905.797 313.172ZM995.016 253.602C1004.13 253.862 1011.68 254.057 1017.67 254.188C1023.79 254.188 1028.74 254.188 1032.52 254.188H1042.87H1101.07C1101.33 256.792 1101.53 259.331 1101.66 261.805C1101.92 264.148 1102.05 266.232 1102.05 268.055C1102.05 270.268 1101.98 272.286 1101.85 274.109C1101.72 275.932 1101.53 277.885 1101.27 279.969C1101.01 281.792 1100.74 283.745 1100.48 285.828C1100.22 287.911 1099.77 290.06 1099.12 292.273C1097.29 285.242 1094.82 279.904 1091.7 276.258C1088.7 272.612 1085.64 269.943 1082.52 268.25C1078.87 266.297 1075.03 265.255 1070.99 265.125C1065.65 265.385 1061.49 265.841 1058.49 266.492C1055.5 267.143 1053.15 268.055 1051.46 269.227C1049.77 270.398 1048.47 271.766 1047.55 273.328C1046.77 274.76 1045.93 276.388 1045.02 278.211C1044.23 279.773 1043.52 282.182 1042.87 285.438C1042.22 288.172 1041.57 291.883 1040.91 296.57C1040.39 301.258 1039.81 307.312 1039.16 314.734C1042.67 313.693 1045.47 312.716 1047.55 311.805C1049.77 310.893 1051.53 310.112 1052.83 309.461C1054.26 308.68 1055.3 307.964 1055.95 307.312C1056.47 306.531 1057.26 305.099 1058.3 303.016C1059.08 301.193 1060.12 298.719 1061.42 295.594C1062.85 292.469 1064.55 288.172 1066.5 282.703C1066.76 288.693 1066.89 293.706 1066.89 297.742C1066.89 301.648 1066.96 304.839 1067.09 307.312C1067.09 310.177 1067.15 312.456 1067.28 314.148V321.57C1067.28 324.305 1067.28 328.016 1067.28 332.703C1067.41 337.26 1067.61 343.055 1067.87 350.086C1066.3 345.268 1064.87 341.492 1063.57 338.758C1062.4 335.893 1061.36 333.745 1060.45 332.312C1059.4 330.62 1058.49 329.448 1057.71 328.797C1056.8 328.536 1055.56 328.276 1054 328.016C1052.57 327.885 1050.74 327.82 1048.53 327.82C1046.45 327.82 1043.78 328.146 1040.52 328.797C1040.13 335.958 1040.07 341.753 1040.33 346.18C1040.72 350.477 1041.24 353.797 1041.89 356.141C1042.54 358.875 1043.32 360.828 1044.23 362C1045.41 363.172 1047.75 364.148 1051.27 364.93C1054.78 365.581 1058.75 365.841 1063.18 365.711C1067.74 365.451 1072.36 364.669 1077.05 363.367C1081.73 362.065 1085.9 359.917 1089.55 356.922C1092.28 354.448 1095.21 351.323 1098.34 347.547C1100.94 344.292 1103.8 340.19 1106.93 335.242C1110.18 330.294 1113.38 324.305 1116.5 317.273C1115.98 323.133 1115.59 328.016 1115.33 331.922C1115.2 335.698 1115 338.758 1114.74 341.102C1114.48 343.836 1114.29 345.919 1114.16 347.352C1114.16 348.914 1113.96 351.128 1113.57 353.992C1113.31 356.466 1112.85 359.852 1112.2 364.148C1111.68 368.315 1110.97 373.654 1110.05 380.164C1103.93 380.294 1098.14 380.424 1092.67 380.555C1087.2 380.555 1082.39 380.62 1078.22 380.75C1073.27 380.88 1068.71 381.01 1064.55 381.141C1060.25 381.141 1055.5 381.336 1050.29 381.727C1045.73 381.987 1040.33 382.378 1034.08 382.898C1027.96 383.419 1021.19 384.135 1013.77 385.047C1014.42 376.193 1014.87 367.859 1015.13 360.047C1015.52 352.104 1015.78 345.138 1015.91 339.148C1016.04 332.117 1016.04 325.607 1015.91 319.617C1016.57 304.643 1016.3 292.534 1015.13 283.289C1013.96 274.044 1012.59 268.12 1011.03 265.516C1010.25 264.604 1009.14 263.497 1007.71 262.195C1006.54 261.154 1004.91 259.917 1002.83 258.484C1000.74 257.052 998.141 255.424 995.016 253.602ZM1154.55 247.742C1159.1 248.393 1163.08 248.914 1166.46 249.305C1169.85 249.695 1172.65 250.021 1174.86 250.281C1177.46 250.542 1179.68 250.737 1181.5 250.867C1183.58 251.128 1186.12 250.997 1189.12 250.477C1192.24 249.956 1195.56 249.435 1199.08 248.914C1202.59 248.263 1206.24 247.742 1210.02 247.352C1213.79 246.961 1217.44 246.961 1220.95 247.352C1223.3 247.612 1226.29 248.133 1229.94 248.914C1233.58 249.695 1237.42 250.932 1241.46 252.625C1245.63 254.318 1249.79 256.531 1253.96 259.266C1258.13 262 1261.9 265.451 1265.29 269.617C1268.67 273.784 1271.47 278.732 1273.69 284.461C1275.9 290.19 1277.14 296.896 1277.4 304.578C1277.79 316.036 1276.75 326.453 1274.27 335.828C1271.8 345.203 1267.96 353.211 1262.75 359.852C1257.67 366.492 1251.23 371.701 1243.41 375.477C1235.6 379.253 1226.49 381.336 1216.07 381.727C1208.13 382.378 1200.32 382.964 1192.63 383.484C1189.38 383.745 1185.93 383.94 1182.28 384.07C1178.77 384.201 1175.25 384.331 1171.73 384.461C1168.22 384.461 1164.83 384.396 1161.58 384.266C1158.32 384.135 1155.33 383.94 1152.59 383.68C1155.59 382.247 1158 380.815 1159.82 379.383C1161.77 377.951 1163.27 376.714 1164.31 375.672C1165.48 374.37 1166.33 373.198 1166.85 372.156C1167.11 370.724 1167.5 367.924 1168.02 363.758C1168.41 360.242 1168.93 355.229 1169.59 348.719C1170.24 342.208 1171.02 333.354 1171.93 322.156L1173.1 308.289C1173.75 299.695 1174.01 292.664 1173.88 287.195C1173.88 281.727 1173.75 277.43 1173.49 274.305C1173.1 270.659 1172.58 267.99 1171.93 266.297C1171.41 264.865 1170.43 263.172 1169 261.219C1167.7 259.656 1165.88 257.768 1163.53 255.555C1161.32 253.211 1158.32 250.607 1154.55 247.742ZM1195.76 319.617C1196.02 331.206 1196.6 340.125 1197.52 346.375C1198.56 352.495 1199.66 357.052 1200.84 360.047C1202.27 363.432 1203.83 365.451 1205.52 366.102C1208 366.102 1210.8 365.06 1213.92 362.977C1217.05 360.763 1220.11 357.443 1223.1 353.016C1226.23 348.589 1229.03 343.055 1231.5 336.414C1234.1 329.773 1235.99 322.026 1237.16 313.172C1238.34 304.318 1238.01 296.505 1236.19 289.734C1234.36 282.964 1231.96 277.299 1228.96 272.742C1225.97 268.055 1222.91 264.539 1219.78 262.195C1216.66 259.721 1214.31 258.484 1212.75 258.484C1210.93 258.484 1209.3 259.005 1207.87 260.047C1206.43 260.958 1204.42 263.107 1201.81 266.492C1200.51 268.315 1199.34 270.919 1198.3 274.305C1197.39 277.299 1196.6 281.271 1195.95 286.219C1195.3 291.167 1195.11 297.547 1195.37 305.359L1195.76 319.617Z" fill="#EC8205"/>
<path d="M1463.18 242.664C1467.74 242.664 1471.84 243.445 1475.48 245.008C1479.26 246.44 1482.71 248.068 1485.84 249.891C1489.09 251.714 1492.15 253.406 1495.02 254.969C1497.88 256.401 1500.81 257.117 1503.8 257.117C1506.15 256.987 1508.82 256.661 1511.81 256.141C1514.42 255.62 1517.41 254.839 1520.8 253.797C1524.31 252.625 1528.22 250.932 1532.52 248.719C1528.22 252.885 1524.7 256.401 1521.97 259.266C1519.36 262 1517.35 264.279 1515.91 266.102C1514.22 268.185 1512.98 269.812 1512.2 270.984C1511.42 272.417 1510.25 274.565 1508.69 277.43C1507.26 280.034 1505.3 283.549 1502.83 287.977C1500.35 292.273 1497.23 297.938 1493.45 304.969C1493.45 295.984 1492.54 289.018 1490.72 284.07C1489.03 279.122 1487.14 275.346 1485.05 272.742C1482.58 269.747 1479.78 267.859 1476.66 267.078C1473.79 266.688 1470.93 267.208 1468.06 268.641C1465.2 269.943 1462.33 271.896 1459.47 274.5C1456.73 277.104 1454.07 280.229 1451.46 283.875C1448.99 287.391 1446.71 291.102 1444.62 295.008C1442.67 298.914 1441.04 302.885 1439.74 306.922C1438.44 310.828 1437.59 314.474 1437.2 317.859C1436.81 320.854 1436.75 324.37 1437.01 328.406C1437.27 332.312 1437.85 336.349 1438.77 340.516C1439.68 344.552 1440.85 348.523 1442.28 352.43C1443.71 356.336 1445.47 359.852 1447.55 362.977C1449.77 365.971 1452.24 368.445 1454.98 370.398C1457.71 372.221 1460.84 373.068 1464.35 372.938C1468.26 372.677 1472.1 371.505 1475.88 369.422C1479.13 367.729 1482.45 365.125 1485.84 361.609C1489.22 357.964 1492.15 352.82 1494.62 346.18L1523.53 351.453C1515.2 361.609 1507.06 369.227 1499.12 374.305C1491.3 379.383 1484.27 382.964 1478.02 385.047C1470.73 387.391 1463.83 388.497 1457.32 388.367C1449.12 387.456 1441.43 384.982 1434.27 380.945C1427.11 376.909 1420.93 372.026 1415.72 366.297C1410.64 360.438 1406.67 354.057 1403.8 347.156C1400.94 340.255 1399.7 333.484 1400.09 326.844C1400.35 322.417 1401.27 317.273 1402.83 311.414C1404.39 305.424 1406.47 299.305 1409.08 293.055C1411.81 286.805 1415.07 280.685 1418.84 274.695C1422.62 268.706 1426.79 263.367 1431.34 258.68C1435.9 253.862 1440.85 250.021 1446.19 247.156C1451.66 244.161 1457.32 242.664 1463.18 242.664ZM1594.2 254.773C1600.71 255.164 1606.17 255.49 1610.6 255.75C1615.16 255.88 1618.93 256.01 1621.93 256.141C1625.32 256.271 1628.18 256.271 1630.52 256.141C1632.87 256.01 1636.06 255.685 1640.09 255.164C1643.48 254.773 1647.97 254.188 1653.57 253.406C1659.3 252.495 1666.4 251.323 1674.86 249.891C1671.86 252.885 1669.52 255.62 1667.83 258.094C1666.27 260.438 1665.03 262.456 1664.12 264.148C1663.08 266.232 1662.36 267.99 1661.97 269.422C1661.71 270.724 1661.97 273.979 1662.75 279.188C1663.53 284.396 1664.64 290.581 1666.07 297.742C1667.5 304.773 1669.07 312.326 1670.76 320.398C1672.45 328.341 1674.14 335.828 1675.84 342.859C1677.53 349.76 1679.03 355.685 1680.33 360.633C1681.76 365.451 1682.8 368.315 1683.45 369.227C1685.41 371.961 1686.64 373.784 1687.16 374.695C1687.68 375.477 1688.6 376.193 1689.9 376.844C1690.42 377.104 1691.27 377.495 1692.44 378.016C1693.48 378.536 1694.85 379.188 1696.54 379.969C1698.36 380.75 1700.64 381.661 1703.38 382.703C1698.3 382.964 1693.93 383.159 1690.29 383.289C1686.64 383.289 1683.65 383.354 1681.3 383.484C1678.57 383.615 1676.23 383.745 1674.27 383.875C1672.32 383.875 1669.98 384.005 1667.24 384.266C1664.9 384.526 1661.84 384.786 1658.06 385.047C1654.42 385.307 1650.12 385.568 1645.17 385.828C1647.78 384.005 1649.86 382.378 1651.42 380.945C1653.11 379.383 1654.42 378.081 1655.33 377.039C1656.37 375.737 1657.09 374.565 1657.48 373.523C1657.74 372.352 1657.93 370.594 1658.06 368.25C1658.19 366.167 1658.19 363.432 1658.06 360.047C1657.93 356.531 1657.61 351.974 1657.09 346.375L1605.72 351.648C1604.42 353.862 1603.44 355.815 1602.79 357.508C1602.14 359.07 1601.68 360.438 1601.42 361.609C1601.03 363.042 1600.9 364.214 1601.03 365.125C1601.29 366.167 1601.75 367.404 1602.4 368.836C1603.05 370.138 1603.96 371.701 1605.13 373.523C1606.43 375.216 1608.32 377.234 1610.8 379.578C1607.54 379.448 1604.22 379.383 1600.84 379.383C1597.45 379.383 1594.33 379.448 1591.46 379.578C1588.08 379.708 1584.76 379.839 1581.5 379.969C1578.24 380.099 1574.53 380.294 1570.37 380.555C1566.85 380.815 1562.75 381.141 1558.06 381.531C1553.24 381.792 1548.1 382.182 1542.63 382.703C1546.02 381.141 1548.88 379.578 1551.23 378.016C1553.57 376.323 1555.52 374.76 1557.09 373.328C1558.91 371.766 1560.47 370.268 1561.77 368.836C1562.68 367.534 1564.51 364.539 1567.24 359.852C1569.98 355.034 1573.04 349.37 1576.42 342.859C1579.94 336.349 1583.58 329.383 1587.36 321.961C1591.27 314.539 1594.78 307.573 1597.91 301.062C1601.03 294.422 1603.57 288.693 1605.52 283.875C1607.48 279.057 1608.45 275.932 1608.45 274.5C1608.19 272.807 1607.54 270.919 1606.5 268.836C1605.59 267.013 1604.16 264.93 1602.2 262.586C1600.38 260.242 1597.71 257.638 1594.2 254.773ZM1654.74 331.922C1653.96 327.365 1653.24 323.458 1652.59 320.203C1651.94 316.818 1651.42 314.018 1651.03 311.805C1650.51 309.201 1650.12 306.922 1649.86 304.969C1649.47 303.146 1649.01 300.802 1648.49 297.938C1647.97 295.464 1647.32 292.404 1646.54 288.758C1645.89 284.982 1645.04 280.49 1644 275.281C1636.58 290.125 1630.78 301.648 1626.62 309.852C1622.58 317.924 1619.65 323.849 1617.83 327.625C1615.61 332.052 1614.38 334.656 1614.12 335.438L1654.74 331.922ZM1727.36 244.422C1736.08 245.464 1743.64 246.245 1750.02 246.766C1756.4 247.156 1761.67 247.482 1765.84 247.742C1770.65 248.003 1774.69 248.068 1777.95 247.938C1781.33 247.807 1785.95 247.482 1791.81 246.961C1796.76 246.57 1803.27 246.049 1811.34 245.398C1819.42 244.617 1829.51 243.576 1841.62 242.273C1841.75 245.268 1841.81 248.198 1841.81 251.062C1841.94 253.797 1842.07 256.206 1842.2 258.289C1842.33 260.763 1842.4 263.042 1842.4 265.125C1842.4 267.339 1842.27 270.138 1842.01 273.523C1841.75 276.388 1841.29 280.034 1840.64 284.461C1840.12 288.758 1839.27 293.901 1838.1 299.891C1836.28 292.859 1834.52 287.195 1832.83 282.898C1831.14 278.471 1829.57 274.956 1828.14 272.352C1826.58 269.357 1825.02 267.078 1823.45 265.516C1821.76 264.344 1819.74 263.367 1817.4 262.586C1815.32 261.935 1812.65 261.414 1809.39 261.023C1806.27 260.633 1802.55 260.698 1798.26 261.219C1797.61 278.406 1797.15 292.339 1796.89 303.016C1796.63 313.693 1796.43 322.026 1796.3 328.016C1796.17 335.177 1796.11 340.32 1796.11 343.445C1796.24 347.872 1796.96 352.234 1798.26 356.531C1799.3 360.177 1800.99 363.953 1803.34 367.859C1805.68 371.766 1809.07 375.216 1813.49 378.211H1789.66C1787.45 378.211 1784.72 378.341 1781.46 378.602C1778.73 378.862 1775.21 379.122 1770.91 379.383C1766.75 379.643 1761.86 380.099 1756.27 380.75C1758.22 377.365 1759.78 374.305 1760.95 371.57C1762.12 368.836 1763.04 366.492 1763.69 364.539C1764.47 362.195 1765.05 360.112 1765.45 358.289C1765.58 355.685 1765.9 350.411 1766.42 342.469C1766.55 339.214 1766.68 335.177 1766.81 330.359C1767.07 325.542 1767.33 319.812 1767.59 313.172C1767.98 306.531 1768.31 298.914 1768.57 290.32C1768.96 281.596 1769.35 271.766 1769.74 260.828C1767.4 260.177 1765.18 260.242 1763.1 261.023C1761.02 261.674 1759.2 262.521 1757.63 263.562C1755.81 264.865 1754.05 266.427 1752.36 268.25C1750.67 270.464 1748.78 273.328 1746.7 276.844C1744.87 279.839 1742.79 283.81 1740.45 288.758C1738.1 293.576 1735.43 299.565 1732.44 306.727C1731.79 299.174 1731.33 292.99 1731.07 288.172C1730.81 283.224 1730.61 279.383 1730.48 276.648C1730.35 273.393 1730.29 270.984 1730.29 269.422C1730.29 267.99 1730.16 266.102 1729.9 263.758C1729.64 261.805 1729.31 259.266 1728.92 256.141C1728.53 252.885 1728.01 248.979 1727.36 244.422Z" fill="#EC8205"/>
<path d="M416.5 787H389.568V699.727H417.693C426.159 699.727 433.403 701.474 439.426 704.969C445.449 708.435 450.065 713.42 453.276 719.926C456.486 726.403 458.091 734.159 458.091 743.193C458.091 752.284 456.472 760.111 453.233 766.673C449.994 773.207 445.278 778.236 439.085 781.759C432.892 785.253 425.364 787 416.5 787ZM400.136 777.625H415.818C423.034 777.625 429.014 776.233 433.759 773.449C438.503 770.665 442.04 766.702 444.369 761.56C446.699 756.418 447.864 750.295 447.864 743.193C447.864 736.148 446.713 730.082 444.412 724.997C442.111 719.884 438.673 715.963 434.099 713.236C429.526 710.48 423.83 709.102 417.011 709.102H400.136V777.625ZM498.455 787V721.545H508.511V787H498.455ZM503.568 710.636C501.608 710.636 499.918 709.969 498.497 708.634C497.105 707.298 496.409 705.693 496.409 703.818C496.409 701.943 497.105 700.338 498.497 699.003C499.918 697.668 501.608 697 503.568 697C505.528 697 507.205 697.668 508.597 699.003C510.017 700.338 510.727 701.943 510.727 703.818C510.727 705.693 510.017 707.298 508.597 708.634C507.205 709.969 505.528 710.636 503.568 710.636ZM577.352 812.909C572.494 812.909 568.317 812.284 564.823 811.034C561.329 809.812 558.417 808.193 556.087 806.176C553.786 804.188 551.954 802.057 550.59 799.784L558.602 794.159C559.511 795.352 560.661 796.716 562.053 798.25C563.445 799.812 565.349 801.162 567.763 802.298C570.207 803.463 573.403 804.045 577.352 804.045C582.636 804.045 586.996 802.767 590.434 800.21C593.871 797.653 595.59 793.648 595.59 788.193V774.898H594.738C593.999 776.091 592.948 777.568 591.585 779.33C590.249 781.062 588.317 782.611 585.789 783.974C583.289 785.31 579.908 785.977 575.647 785.977C570.363 785.977 565.619 784.727 561.414 782.227C557.238 779.727 553.928 776.091 551.485 771.318C549.07 766.545 547.863 760.75 547.863 753.932C547.863 747.227 549.042 741.389 551.4 736.418C553.758 731.418 557.039 727.554 561.244 724.827C565.448 722.071 570.306 720.693 575.817 720.693C580.079 720.693 583.46 721.403 585.96 722.824C588.488 724.216 590.42 725.807 591.755 727.597C593.119 729.358 594.17 730.807 594.908 731.943H595.931V721.545H605.647V788.875C605.647 794.5 604.369 799.074 601.812 802.597C599.283 806.148 595.874 808.747 591.585 810.395C587.323 812.071 582.579 812.909 577.352 812.909ZM577.011 776.943C581.045 776.943 584.454 776.02 587.238 774.173C590.022 772.327 592.138 769.67 593.587 766.205C595.036 762.739 595.761 758.591 595.761 753.761C595.761 749.045 595.05 744.884 593.63 741.276C592.21 737.668 590.107 734.841 587.323 732.795C584.539 730.75 581.102 729.727 577.011 729.727C572.749 729.727 569.198 730.807 566.357 732.966C563.545 735.125 561.428 738.023 560.008 741.659C558.616 745.295 557.92 749.33 557.92 753.761C557.92 758.307 558.63 762.327 560.05 765.821C561.499 769.287 563.63 772.014 566.442 774.003C569.283 775.963 572.806 776.943 577.011 776.943ZM648.056 787V721.545H658.113V787H648.056ZM653.17 710.636C651.21 710.636 649.519 709.969 648.099 708.634C646.707 707.298 646.011 705.693 646.011 703.818C646.011 701.943 646.707 700.338 648.099 699.003C649.519 697.668 651.21 697 653.17 697C655.13 697 656.806 697.668 658.198 699.003C659.619 700.338 660.329 701.943 660.329 703.818C660.329 705.693 659.619 707.298 658.198 708.634C656.806 709.969 655.13 710.636 653.17 710.636ZM728.999 721.545V730.068H695.078V721.545H728.999ZM704.964 705.864H715.021V768.25C715.021 771.091 715.433 773.222 716.257 774.642C717.109 776.034 718.189 776.972 719.496 777.455C720.831 777.909 722.237 778.136 723.714 778.136C724.822 778.136 725.732 778.08 726.442 777.966C727.152 777.824 727.72 777.71 728.146 777.625L730.192 786.659C729.51 786.915 728.558 787.17 727.337 787.426C726.115 787.71 724.567 787.852 722.692 787.852C719.851 787.852 717.067 787.241 714.339 786.02C711.641 784.798 709.396 782.938 707.607 780.438C705.845 777.938 704.964 774.784 704.964 770.977V705.864ZM787.388 788.534C783.24 788.534 779.476 787.753 776.095 786.19C772.714 784.599 770.03 782.312 768.041 779.33C766.053 776.318 765.058 772.682 765.058 768.42C765.058 764.67 765.797 761.631 767.274 759.301C768.751 756.943 770.726 755.097 773.197 753.761C775.669 752.426 778.396 751.432 781.379 750.778C784.391 750.097 787.416 749.557 790.456 749.159C794.433 748.648 797.658 748.264 800.129 748.009C802.629 747.724 804.447 747.256 805.584 746.602C806.749 745.949 807.331 744.812 807.331 743.193V742.852C807.331 738.648 806.18 735.381 803.879 733.051C801.607 730.722 798.155 729.557 793.524 729.557C788.723 729.557 784.959 730.608 782.232 732.71C779.504 734.812 777.587 737.057 776.479 739.443L766.933 736.034C768.638 732.057 770.911 728.96 773.751 726.744C776.621 724.5 779.746 722.937 783.126 722.057C786.536 721.148 789.888 720.693 793.183 720.693C795.286 720.693 797.7 720.949 800.428 721.46C803.183 721.943 805.839 722.952 808.396 724.486C810.982 726.02 813.126 728.335 814.831 731.432C816.536 734.528 817.388 738.676 817.388 743.875V787H807.331V778.136H806.82C806.138 779.557 805.001 781.077 803.411 782.696C801.82 784.315 799.703 785.693 797.061 786.83C794.419 787.966 791.195 788.534 787.388 788.534ZM788.922 779.5C792.899 779.5 796.251 778.719 798.979 777.156C801.734 775.594 803.808 773.577 805.2 771.105C806.621 768.634 807.331 766.034 807.331 763.307V754.102C806.905 754.614 805.967 755.082 804.518 755.509C803.098 755.906 801.45 756.261 799.575 756.574C797.729 756.858 795.925 757.114 794.163 757.341C792.43 757.54 791.024 757.71 789.945 757.852C787.331 758.193 784.888 758.747 782.615 759.514C780.371 760.253 778.553 761.375 777.161 762.881C775.797 764.358 775.115 766.375 775.115 768.932C775.115 772.426 776.408 775.068 778.993 776.858C781.607 778.619 784.916 779.5 788.922 779.5ZM869.8 699.727V787H859.744V699.727H869.8ZM1019.06 721.545C1018.55 717.227 1016.48 713.875 1012.84 711.489C1009.2 709.102 1004.74 707.909 999.459 707.909C995.595 707.909 992.214 708.534 989.317 709.784C986.447 711.034 984.203 712.753 982.584 714.94C980.993 717.128 980.197 719.614 980.197 722.398C980.197 724.727 980.751 726.73 981.859 728.406C982.996 730.054 984.445 731.432 986.206 732.54C987.967 733.619 989.814 734.514 991.746 735.224C993.678 735.906 995.453 736.46 997.072 736.886L1005.94 739.273C1008.21 739.869 1010.74 740.693 1013.52 741.744C1016.33 742.795 1019.02 744.23 1021.58 746.048C1024.16 747.838 1026.29 750.139 1027.97 752.952C1029.64 755.764 1030.48 759.216 1030.48 763.307C1030.48 768.023 1029.25 772.284 1026.77 776.091C1024.33 779.898 1020.75 782.923 1016.04 785.168C1011.35 787.412 1005.65 788.534 998.947 788.534C992.697 788.534 987.286 787.526 982.712 785.509C978.166 783.491 974.587 780.679 971.973 777.071C969.388 773.463 967.925 769.273 967.584 764.5H978.493C978.777 767.795 979.885 770.523 981.817 772.682C983.777 774.812 986.249 776.403 989.232 777.455C992.243 778.477 995.482 778.989 998.947 778.989C1002.98 778.989 1006.6 778.335 1009.81 777.028C1013.02 775.693 1015.57 773.847 1017.44 771.489C1019.32 769.102 1020.25 766.318 1020.25 763.136C1020.25 760.239 1019.44 757.881 1017.83 756.062C1016.21 754.244 1014.08 752.767 1011.43 751.631C1008.79 750.494 1005.94 749.5 1002.87 748.648L992.129 745.58C985.311 743.619 979.913 740.821 975.936 737.185C971.959 733.548 969.97 728.79 969.97 722.909C969.97 718.023 971.291 713.761 973.933 710.125C976.604 706.46 980.183 703.619 984.672 701.602C989.189 699.557 994.232 698.534 999.8 698.534C1005.42 698.534 1010.42 699.543 1014.8 701.56C1019.17 703.548 1022.64 706.276 1025.2 709.741C1027.78 713.207 1029.15 717.142 1029.29 721.545H1019.06ZM1098.96 721.545V730.068H1065.04V721.545H1098.96ZM1074.93 705.864H1084.98V768.25C1084.98 771.091 1085.39 773.222 1086.22 774.642C1087.07 776.034 1088.15 776.972 1089.46 777.455C1090.79 777.909 1092.2 778.136 1093.68 778.136C1094.78 778.136 1095.69 778.08 1096.4 777.966C1097.11 777.824 1097.68 777.71 1098.11 777.625L1100.15 786.659C1099.47 786.915 1098.52 787.17 1097.3 787.426C1096.08 787.71 1094.53 787.852 1092.65 787.852C1089.81 787.852 1087.03 787.241 1084.3 786.02C1081.6 784.798 1079.36 782.938 1077.57 780.438C1075.81 777.938 1074.93 774.784 1074.93 770.977V705.864ZM1179.34 760.239V721.545H1189.39V787H1179.34V775.92H1178.66C1177.12 779.244 1174.74 782.071 1171.5 784.401C1168.26 786.702 1164.17 787.852 1159.22 787.852C1155.13 787.852 1151.5 786.957 1148.31 785.168C1145.13 783.349 1142.63 780.622 1140.81 776.986C1139 773.321 1138.09 768.705 1138.09 763.136V721.545H1148.14V762.455C1148.14 767.227 1149.48 771.034 1152.15 773.875C1154.85 776.716 1158.29 778.136 1162.46 778.136C1164.96 778.136 1167.5 777.497 1170.09 776.219C1172.7 774.94 1174.89 772.98 1176.65 770.338C1178.44 767.696 1179.34 764.33 1179.34 760.239ZM1256.53 788.364C1251.08 788.364 1246.26 786.986 1242.08 784.23C1237.91 781.446 1234.64 777.526 1232.28 772.469C1229.92 767.384 1228.75 761.375 1228.75 754.443C1228.75 747.568 1229.92 741.602 1232.28 736.545C1234.64 731.489 1237.92 727.582 1242.13 724.827C1246.33 722.071 1251.19 720.693 1256.7 720.693C1260.96 720.693 1264.33 721.403 1266.8 722.824C1269.3 724.216 1271.2 725.807 1272.51 727.597C1273.85 729.358 1274.88 730.807 1275.62 731.943H1276.47V699.727H1286.53V787H1276.81V776.943H1275.62C1274.88 778.136 1273.83 779.642 1272.47 781.46C1271.1 783.25 1269.16 784.855 1266.63 786.276C1264.1 787.668 1260.73 788.364 1256.53 788.364ZM1257.89 779.33C1261.93 779.33 1265.34 778.278 1268.12 776.176C1270.9 774.045 1273.02 771.105 1274.47 767.355C1275.92 763.577 1276.64 759.216 1276.64 754.273C1276.64 749.386 1275.93 745.111 1274.51 741.446C1273.09 737.753 1270.99 734.884 1268.21 732.838C1265.42 730.764 1261.98 729.727 1257.89 729.727C1253.63 729.727 1250.08 730.821 1247.24 733.009C1244.43 735.168 1242.31 738.108 1240.89 741.83C1239.5 745.523 1238.8 749.67 1238.8 754.273C1238.8 758.932 1239.51 763.165 1240.93 766.972C1242.38 770.75 1244.51 773.761 1247.33 776.006C1250.17 778.222 1253.69 779.33 1257.89 779.33ZM1330.35 787V721.545H1340.4V787H1330.35ZM1335.46 710.636C1333.5 710.636 1331.81 709.969 1330.39 708.634C1329 707.298 1328.3 705.693 1328.3 703.818C1328.3 701.943 1329 700.338 1330.39 699.003C1331.81 697.668 1333.5 697 1335.46 697C1337.42 697 1339.1 697.668 1340.49 699.003C1341.91 700.338 1342.62 701.943 1342.62 703.818C1342.62 705.693 1341.91 707.298 1340.49 708.634C1339.1 709.969 1337.42 710.636 1335.46 710.636ZM1409.41 788.364C1403.5 788.364 1398.32 786.957 1393.86 784.145C1389.43 781.332 1385.96 777.398 1383.46 772.341C1380.99 767.284 1379.75 761.375 1379.75 754.614C1379.75 747.795 1380.99 741.844 1383.46 736.759C1385.96 731.673 1389.43 727.724 1393.86 724.912C1398.32 722.099 1403.5 720.693 1409.41 720.693C1415.32 720.693 1420.49 722.099 1424.92 724.912C1429.38 727.724 1432.85 731.673 1435.32 736.759C1437.82 741.844 1439.07 747.795 1439.07 754.614C1439.07 761.375 1437.82 767.284 1435.32 772.341C1432.85 777.398 1429.38 781.332 1424.92 784.145C1420.49 786.957 1415.32 788.364 1409.41 788.364ZM1409.41 779.33C1413.9 779.33 1417.59 778.179 1420.49 775.878C1423.39 773.577 1425.53 770.551 1426.93 766.801C1428.32 763.051 1429.01 758.989 1429.01 754.614C1429.01 750.239 1428.32 746.162 1426.93 742.384C1425.53 738.605 1423.39 735.551 1420.49 733.222C1417.59 730.892 1413.9 729.727 1409.41 729.727C1404.92 729.727 1401.23 730.892 1398.33 733.222C1395.44 735.551 1393.29 738.605 1391.9 742.384C1390.51 746.162 1389.81 750.239 1389.81 754.614C1389.81 758.989 1390.51 763.051 1391.9 766.801C1393.29 770.551 1395.44 773.577 1398.33 775.878C1401.23 778.179 1404.92 779.33 1409.41 779.33Z" fill="black"/>
<line y1="759" x2="300" y2="759" stroke="black" stroke-width="4"/>
<line x1="1537" y1="759" x2="1837" y2="759" stroke="black" stroke-width="4"/>
</svg>
