<svg width="70" height="63" viewBox="0 0 1035 953" fill="none" xmlns="http://www.w3.org/2000/svg">
<path d="M871.93 388.917L919 377.784L911.725 347.095L873.834 356.055C873.834 355.542 873.859 355.053 873.859 354.541C873.859 295.044 857.405 240.82 828.595 194.605C852.717 110.327 807.598 0 807.598 0C807.598 0 724.958 35.2547 677.936 77.9062C630.108 63.4781 576.153 58.8391 519 58.8391C461.553 58.8391 407.306 62.8437 359.308 77.2469C312.189 34.8891 230.402 0 230.402 0C230.402 0 185.259 110.353 209.405 194.63C180.62 240.845 164.117 295.069 164.117 354.542C164.117 355.055 164.166 355.544 164.166 356.056L126.275 347.097L119 377.784L166.045 388.917C170.22 425.758 181.158 458.839 197.661 488.014L139.117 511.427L150.811 540.723L215.191 514.967C277.373 598 390.142 642.384 519 642.384C647.833 642.384 760.627 598 822.809 514.967L887.189 540.723L898.883 511.427L840.338 488.014C856.842 458.839 867.78 425.758 871.93 388.917Z" fill="black"/>
<path d="M264.938 249.695C269.234 250.216 273.141 250.607 276.656 250.867C280.042 251.128 282.971 251.388 285.445 251.648C288.31 251.909 290.849 252.104 293.062 252.234C295.406 252.234 298.401 252.169 302.047 252.039C305.172 251.909 309.143 251.714 313.961 251.453C318.779 251.193 324.703 250.737 331.734 250.086C328.349 252.039 325.549 253.992 323.336 255.945C321.253 257.898 319.625 259.656 318.453 261.219C317.021 263.042 315.979 264.865 315.328 266.688C314.938 269.161 315.068 273.979 315.719 281.141C315.979 284.135 316.37 287.846 316.891 292.273C317.542 296.57 318.323 301.714 319.234 307.703C320.276 313.562 321.513 320.333 322.945 328.016C324.508 335.698 326.266 344.422 328.219 354.188C330.823 346.766 332.971 340.19 334.664 334.461C336.357 328.602 337.789 323.589 338.961 319.422C340.263 314.734 341.37 310.568 342.281 306.922C343.193 303.146 344.299 298.263 345.602 292.273C346.643 287.195 348.01 280.62 349.703 272.547C351.396 264.474 353.479 254.513 355.953 242.664L362.984 243.641C363.635 252.885 364.286 261.023 364.938 268.055C365.719 275.086 366.37 281.076 366.891 286.023C367.411 291.753 367.932 296.701 368.453 300.867C368.974 304.643 369.755 309.005 370.797 313.953C371.708 318.12 372.88 323.263 374.312 329.383C375.745 335.372 377.633 342.143 379.977 349.695C382.32 340.451 384.404 332.182 386.227 324.891C388.18 317.599 389.807 311.154 391.109 305.555C392.542 299.956 393.714 295.138 394.625 291.102C395.667 287.065 396.513 283.68 397.164 280.945C398.596 274.435 399.443 270.073 399.703 267.859C399.573 265.385 398.987 262.977 397.945 260.633C397.034 258.549 395.602 256.271 393.648 253.797C391.695 251.323 388.831 248.914 385.055 246.57C392.997 246.831 399.443 247.026 404.391 247.156C409.469 247.156 413.505 247.156 416.5 247.156H424.312H431.344C433.948 247.156 437.333 247.156 441.5 247.156C445.797 247.026 451.266 246.831 457.906 246.57C452.177 249.565 447.555 252.299 444.039 254.773C440.523 257.247 437.789 259.331 435.836 261.023C433.492 263.107 431.799 264.865 430.758 266.297C429.716 268.901 428.023 274.76 425.68 283.875C424.638 287.781 423.466 292.664 422.164 298.523C420.862 304.253 419.299 311.154 417.477 319.227C415.784 327.299 413.831 336.74 411.617 347.547C409.404 358.224 406.93 370.464 404.195 384.266L370.406 380.75L355.953 320.008C353.74 331.076 351.982 340.06 350.68 346.961C349.378 353.732 348.401 359.005 347.75 362.781C346.969 367.339 346.513 370.659 346.383 372.742C346.253 374.565 346.122 376.323 345.992 378.016C345.862 379.448 345.667 381.01 345.406 382.703C345.276 384.396 345.081 385.958 344.82 387.391H310.25C306.865 372.547 303.805 359.461 301.07 348.133C298.466 336.674 296.122 326.648 294.039 318.055C291.956 309.461 290.133 302.169 288.57 296.18C287.138 290.19 285.836 285.177 284.664 281.141C282.06 271.766 280.172 265.971 279 263.758C278.089 262.716 276.917 261.479 275.484 260.047C274.312 258.875 272.88 257.443 271.188 255.75C269.365 253.927 267.281 251.909 264.938 249.695ZM465.875 253.602C474.99 253.862 482.542 254.057 488.531 254.188C494.651 254.188 499.599 254.188 503.375 254.188H513.727H571.93C572.19 256.792 572.385 259.331 572.516 261.805C572.776 264.148 572.906 266.232 572.906 268.055C572.906 270.268 572.841 272.286 572.711 274.109C572.581 275.932 572.385 277.885 572.125 279.969C571.865 281.792 571.604 283.745 571.344 285.828C571.083 287.911 570.628 290.06 569.977 292.273C568.154 285.242 565.68 279.904 562.555 276.258C559.56 272.612 556.5 269.943 553.375 268.25C549.729 266.297 545.888 265.255 541.852 265.125C536.513 265.385 532.346 265.841 529.352 266.492C526.357 267.143 524.013 268.055 522.32 269.227C520.628 270.398 519.326 271.766 518.414 273.328C517.633 274.76 516.786 276.388 515.875 278.211C515.094 279.773 514.378 282.182 513.727 285.438C513.076 288.172 512.424 291.883 511.773 296.57C511.253 301.258 510.667 307.312 510.016 314.734C513.531 313.693 516.331 312.716 518.414 311.805C520.628 310.893 522.385 310.112 523.688 309.461C525.12 308.68 526.161 307.964 526.812 307.312C527.333 306.531 528.115 305.099 529.156 303.016C529.938 301.193 530.979 298.719 532.281 295.594C533.714 292.469 535.406 288.172 537.359 282.703C537.62 288.693 537.75 293.706 537.75 297.742C537.75 301.648 537.815 304.839 537.945 307.312C537.945 310.177 538.01 312.456 538.141 314.148V321.57C538.141 324.305 538.141 328.016 538.141 332.703C538.271 337.26 538.466 343.055 538.727 350.086C537.164 345.268 535.732 341.492 534.43 338.758C533.258 335.893 532.216 333.745 531.305 332.312C530.263 330.62 529.352 329.448 528.57 328.797C527.659 328.536 526.422 328.276 524.859 328.016C523.427 327.885 521.604 327.82 519.391 327.82C517.307 327.82 514.638 328.146 511.383 328.797C510.992 335.958 510.927 341.753 511.188 346.18C511.578 350.477 512.099 353.797 512.75 356.141C513.401 358.875 514.182 360.828 515.094 362C516.266 363.172 518.609 364.148 522.125 364.93C525.641 365.581 529.612 365.841 534.039 365.711C538.596 365.451 543.219 364.669 547.906 363.367C552.594 362.065 556.76 359.917 560.406 356.922C563.141 354.448 566.07 351.323 569.195 347.547C571.799 344.292 574.664 340.19 577.789 335.242C581.044 330.294 584.234 324.305 587.359 317.273C586.839 323.133 586.448 328.016 586.188 331.922C586.057 335.698 585.862 338.758 585.602 341.102C585.341 343.836 585.146 345.919 585.016 347.352C585.016 348.914 584.82 351.128 584.43 353.992C584.169 356.466 583.714 359.852 583.062 364.148C582.542 368.315 581.826 373.654 580.914 380.164C574.794 380.294 569 380.424 563.531 380.555C558.062 380.555 553.245 380.62 549.078 380.75C544.13 380.88 539.573 381.01 535.406 381.141C531.109 381.141 526.357 381.336 521.148 381.727C516.591 381.987 511.188 382.378 504.938 382.898C498.818 383.419 492.047 384.135 484.625 385.047C485.276 376.193 485.732 367.859 485.992 360.047C486.383 352.104 486.643 345.138 486.773 339.148C486.904 332.117 486.904 325.607 486.773 319.617C487.424 304.643 487.164 292.534 485.992 283.289C484.82 274.044 483.453 268.12 481.891 265.516C481.109 264.604 480.003 263.497 478.57 262.195C477.398 261.154 475.771 259.917 473.688 258.484C471.604 257.052 469 255.424 465.875 253.602ZM628.531 247.352C632.698 248.393 636.669 249.174 640.445 249.695C644.221 250.216 647.542 250.607 650.406 250.867C653.792 251.258 656.917 251.388 659.781 251.258C663.427 251.258 667.984 250.932 673.453 250.281C679.052 249.63 684.781 249.044 690.641 248.523C696.5 247.872 702.099 247.482 707.438 247.352C712.906 247.091 717.333 247.417 720.719 248.328C724.104 249.109 727.555 250.346 731.07 252.039C734.716 253.602 738.036 255.62 741.031 258.094C744.026 260.438 746.5 263.237 748.453 266.492C750.406 269.617 751.513 273.198 751.773 277.234C751.643 282.312 750.471 287.065 748.258 291.492C746.435 295.268 743.375 299.174 739.078 303.211C734.781 307.117 728.596 310.112 720.523 312.195C724.56 312.716 728.01 313.628 730.875 314.93C733.87 316.102 736.409 317.534 738.492 319.227C740.706 320.789 742.464 322.547 743.766 324.5C745.198 326.453 746.305 328.406 747.086 330.359C749.039 334.917 749.951 339.995 749.82 345.594C749.039 352.885 747.542 358.68 745.328 362.977C743.245 367.273 740.836 370.594 738.102 372.938C735.367 375.281 732.568 376.909 729.703 377.82C726.839 378.732 724.234 379.448 721.891 379.969C719.547 380.49 716.682 380.75 713.297 380.75C709.911 380.75 706.266 380.685 702.359 380.555C698.583 380.294 694.677 380.099 690.641 379.969C686.604 379.708 682.763 379.708 679.117 379.969C676.122 380.229 672.477 380.49 668.18 380.75C664.534 381.01 659.977 381.336 654.508 381.727C649.039 381.987 642.659 382.312 635.367 382.703C636.799 381.661 637.971 380.49 638.883 379.188C639.924 377.755 640.771 376.518 641.422 375.477C642.073 374.174 642.659 372.938 643.18 371.766C643.57 370.724 643.896 367.859 644.156 363.172C644.417 358.484 644.612 352.885 644.742 346.375C644.872 339.734 644.938 332.638 644.938 325.086C645.068 317.404 645.003 310.047 644.742 303.016C644.612 295.854 644.352 289.539 643.961 284.07C643.701 278.471 643.31 274.435 642.789 271.961C642.008 269.227 640.966 266.427 639.664 263.562C638.622 261.089 637.125 258.419 635.172 255.555C633.349 252.69 631.135 249.956 628.531 247.352ZM669.742 267.273C669.742 267.794 669.807 269.552 669.938 272.547C670.068 275.151 670.198 279.188 670.328 284.656C670.589 289.995 670.914 297.612 671.305 307.508C674.56 308.94 677.75 309.721 680.875 309.852C684 309.852 686.799 309.721 689.273 309.461C692.138 309.07 694.872 308.419 697.477 307.508C700.992 306.076 703.727 303.732 705.68 300.477C707.763 297.221 709.13 293.836 709.781 290.32C710.562 286.674 710.758 283.289 710.367 280.164C709.977 276.909 709.13 274.565 707.828 273.133C705.354 270.919 702.294 269.096 698.648 267.664C695.523 266.492 691.552 265.711 686.734 265.32C682.047 264.799 676.383 265.451 669.742 267.273ZM668.766 359.852C673.583 362.326 677.815 363.953 681.461 364.734C685.107 365.516 688.167 365.906 690.641 365.906C693.505 365.906 695.979 365.516 698.062 364.734C700.536 363.562 702.945 362 705.289 360.047C707.763 357.964 709.586 355.555 710.758 352.82C712.06 349.956 712.581 346.831 712.32 343.445C712.06 339.93 710.562 336.089 707.828 331.922C705.354 328.927 702.359 326.583 698.844 324.891C695.719 323.458 691.747 322.547 686.93 322.156C682.242 321.766 676.448 322.872 669.547 325.477L668.766 359.852Z" fill="white"/>
<path d="M0.96875 712.422C5.13542 713.073 8.91146 713.659 12.2969 714.18C15.6823 714.57 18.612 714.896 21.0859 715.156C23.9505 715.547 26.4896 715.872 28.7031 716.133C31.4375 716.523 35.5391 716.068 41.0078 714.766C46.4766 713.333 52.4661 712.031 58.9766 710.859C65.6172 709.557 72.388 708.841 79.2891 708.711C86.1901 708.451 92.5052 709.688 98.2344 712.422C103.964 715.156 108.651 717.891 112.297 720.625C115.943 723.359 118.807 726.289 120.891 729.414C123.104 732.409 124.667 735.599 125.578 738.984C126.49 742.37 127.01 746.081 127.141 750.117C127.01 756.107 125.578 761.901 122.844 767.5C121.672 769.844 120.109 772.318 118.156 774.922C116.333 777.396 114.055 779.805 111.32 782.148C108.586 784.492 105.331 786.706 101.555 788.789C97.9089 790.872 93.612 792.695 88.6641 794.258C93.4818 795.69 97.4531 797.383 100.578 799.336C103.833 801.289 106.438 803.112 108.391 804.805C110.734 806.888 112.492 808.906 113.664 810.859C115.096 813.594 116.073 815.938 116.594 817.891C117.115 819.844 117.44 821.732 117.57 823.555C117.831 825.247 118.156 827.005 118.547 828.828C118.938 830.651 119.784 832.734 121.086 835.078C122.128 836.901 123.365 838.789 124.797 840.742C126.099 842.435 127.596 844.258 129.289 846.211C131.112 848.164 133.326 850.052 135.93 851.875C132.284 852.005 128.898 852.07 125.773 852.07C122.779 852.07 120.174 852.07 117.961 852.07C115.357 852.07 112.883 852.005 110.539 851.875C108.195 851.745 105.266 851.68 101.75 851.68C98.7552 851.68 94.9141 851.68 90.2266 851.68C85.6693 851.68 80.1354 851.745 73.625 851.875C76.4896 849.661 78.8333 847.448 80.6562 845.234C82.4792 843.021 83.9115 841.003 84.9531 839.18C86.125 837.096 86.9714 835.078 87.4922 833.125C88.1432 829.609 88.2083 825.964 87.6875 822.188C87.2969 818.932 86.2552 815.352 84.5625 811.445C82.8698 807.409 80.1354 803.372 76.3594 799.336C72.5833 799.987 69.3932 800.508 66.7891 800.898C64.3151 801.159 62.1667 801.419 60.3438 801.68C58.2604 801.94 56.5677 802.135 55.2656 802.266C54.0938 802.396 52.7917 802.526 51.3594 802.656C50.1875 802.786 48.8854 802.982 47.4531 803.242C46.151 803.372 44.9141 803.568 43.7422 803.828C43.4818 809.427 43.4818 814.31 43.7422 818.477C44.0026 822.513 44.3281 825.898 44.7188 828.633C45.2396 831.888 45.8255 834.688 46.4766 837.031C47.1276 839.375 48.0391 841.654 49.2109 843.867C50.1224 845.69 51.2943 847.643 52.7266 849.727C54.1589 851.68 55.7865 853.307 57.6094 854.609C54.224 854.609 50.9688 854.609 47.8438 854.609C44.849 854.609 42.1146 854.544 39.6406 854.414C36.776 854.414 34.0417 854.349 31.4375 854.219C28.8333 854.089 25.9036 854.023 22.6484 854.023C19.9141 854.023 16.6589 854.023 12.8828 854.023C9.23698 854.023 5.26562 854.089 0.96875 854.219C4.35417 850.703 7.02344 847.708 8.97656 845.234C10.9297 842.76 12.4271 840.677 13.4688 838.984C14.6406 837.161 15.3568 835.599 15.6172 834.297C15.8776 832.214 16.0729 828.503 16.2031 823.164C16.4635 817.695 16.6589 811.445 16.7891 804.414C16.9193 797.383 16.9844 790.026 16.9844 782.344C16.9844 774.661 16.9193 767.5 16.7891 760.859C16.6589 754.089 16.5286 748.294 16.3984 743.477C16.2682 738.659 16.138 735.599 16.0078 734.297C15.6172 731.953 14.7708 729.609 13.4688 727.266C12.4271 725.182 10.9297 722.839 8.97656 720.234C7.02344 717.63 4.35417 715.026 0.96875 712.422ZM74.7969 781.172C76.099 780.391 77.2057 779.609 78.1172 778.828C79.0286 778.047 79.8099 776.81 80.4609 775.117C81.112 773.294 81.6328 770.755 82.0234 767.5C82.5443 764.245 83.1302 759.818 83.7812 754.219C84.3021 748.62 83.9115 743.997 82.6094 740.352C81.4375 736.706 79.8099 733.841 77.7266 731.758C75.7734 729.544 73.5599 728.047 71.0859 727.266C68.7422 726.354 66.6589 725.898 64.8359 725.898C61.1901 725.898 57.6094 727.005 54.0938 729.219C50.5781 731.432 47.9089 734.427 46.0859 738.203C45.4349 739.896 44.849 742.695 44.3281 746.602C43.9375 749.987 43.6771 754.674 43.5469 760.664C43.4167 766.654 43.612 774.531 44.1328 784.297C49.0807 785.078 53.4427 785.404 57.2188 785.273C60.9948 785.013 64.1849 784.557 66.7891 783.906C69.9141 783.255 72.5833 782.344 74.7969 781.172ZM164.016 721.602C173.13 721.862 180.682 722.057 186.672 722.188C192.792 722.188 197.74 722.188 201.516 722.188H211.867H270.07C270.331 724.792 270.526 727.331 270.656 729.805C270.917 732.148 271.047 734.232 271.047 736.055C271.047 738.268 270.982 740.286 270.852 742.109C270.721 743.932 270.526 745.885 270.266 747.969C270.005 749.792 269.745 751.745 269.484 753.828C269.224 755.911 268.768 758.06 268.117 760.273C266.294 753.242 263.82 747.904 260.695 744.258C257.701 740.612 254.641 737.943 251.516 736.25C247.87 734.297 244.029 733.255 239.992 733.125C234.654 733.385 230.487 733.841 227.492 734.492C224.497 735.143 222.154 736.055 220.461 737.227C218.768 738.398 217.466 739.766 216.555 741.328C215.773 742.76 214.927 744.388 214.016 746.211C213.234 747.773 212.518 750.182 211.867 753.438C211.216 756.172 210.565 759.883 209.914 764.57C209.393 769.258 208.807 775.312 208.156 782.734C211.672 781.693 214.471 780.716 216.555 779.805C218.768 778.893 220.526 778.112 221.828 777.461C223.26 776.68 224.302 775.964 224.953 775.312C225.474 774.531 226.255 773.099 227.297 771.016C228.078 769.193 229.12 766.719 230.422 763.594C231.854 760.469 233.547 756.172 235.5 750.703C235.76 756.693 235.891 761.706 235.891 765.742C235.891 769.648 235.956 772.839 236.086 775.312C236.086 778.177 236.151 780.456 236.281 782.148V789.57C236.281 792.305 236.281 796.016 236.281 800.703C236.411 805.26 236.607 811.055 236.867 818.086C235.305 813.268 233.872 809.492 232.57 806.758C231.398 803.893 230.357 801.745 229.445 800.312C228.404 798.62 227.492 797.448 226.711 796.797C225.799 796.536 224.562 796.276 223 796.016C221.568 795.885 219.745 795.82 217.531 795.82C215.448 795.82 212.779 796.146 209.523 796.797C209.133 803.958 209.068 809.753 209.328 814.18C209.719 818.477 210.24 821.797 210.891 824.141C211.542 826.875 212.323 828.828 213.234 830C214.406 831.172 216.75 832.148 220.266 832.93C223.781 833.581 227.753 833.841 232.18 833.711C236.737 833.451 241.359 832.669 246.047 831.367C250.734 830.065 254.901 827.917 258.547 824.922C261.281 822.448 264.211 819.323 267.336 815.547C269.94 812.292 272.805 808.19 275.93 803.242C279.185 798.294 282.375 792.305 285.5 785.273C284.979 791.133 284.589 796.016 284.328 799.922C284.198 803.698 284.003 806.758 283.742 809.102C283.482 811.836 283.286 813.919 283.156 815.352C283.156 816.914 282.961 819.128 282.57 821.992C282.31 824.466 281.854 827.852 281.203 832.148C280.682 836.315 279.966 841.654 279.055 848.164C272.935 848.294 267.141 848.424 261.672 848.555C256.203 848.555 251.385 848.62 247.219 848.75C242.271 848.88 237.714 849.01 233.547 849.141C229.25 849.141 224.497 849.336 219.289 849.727C214.732 849.987 209.328 850.378 203.078 850.898C196.958 851.419 190.188 852.135 182.766 853.047C183.417 844.193 183.872 835.859 184.133 828.047C184.523 820.104 184.784 813.138 184.914 807.148C185.044 800.117 185.044 793.607 184.914 787.617C185.565 772.643 185.305 760.534 184.133 751.289C182.961 742.044 181.594 736.12 180.031 733.516C179.25 732.604 178.143 731.497 176.711 730.195C175.539 729.154 173.911 727.917 171.828 726.484C169.745 725.052 167.141 723.424 164.016 721.602ZM323.547 715.742C328.104 716.393 332.076 716.914 335.461 717.305C338.846 717.695 341.646 718.021 343.859 718.281C346.464 718.542 348.677 718.737 350.5 718.867C352.583 719.128 355.122 718.997 358.117 718.477C361.242 717.956 364.562 717.435 368.078 716.914C371.594 716.263 375.24 715.742 379.016 715.352C382.792 714.961 386.438 714.961 389.953 715.352C392.297 715.612 395.292 716.133 398.938 716.914C402.583 717.695 406.424 718.932 410.461 720.625C414.628 722.318 418.794 724.531 422.961 727.266C427.128 730 430.904 733.451 434.289 737.617C437.674 741.784 440.474 746.732 442.688 752.461C444.901 758.19 446.138 764.896 446.398 772.578C446.789 784.036 445.747 794.453 443.273 803.828C440.799 813.203 436.958 821.211 431.75 827.852C426.672 834.492 420.227 839.701 412.414 843.477C404.602 847.253 395.487 849.336 385.07 849.727C377.128 850.378 369.315 850.964 361.633 851.484C358.378 851.745 354.927 851.94 351.281 852.07C347.766 852.201 344.25 852.331 340.734 852.461C337.219 852.461 333.833 852.396 330.578 852.266C327.323 852.135 324.328 851.94 321.594 851.68C324.589 850.247 326.997 848.815 328.82 847.383C330.773 845.951 332.271 844.714 333.312 843.672C334.484 842.37 335.331 841.198 335.852 840.156C336.112 838.724 336.503 835.924 337.023 831.758C337.414 828.242 337.935 823.229 338.586 816.719C339.237 810.208 340.018 801.354 340.93 790.156L342.102 776.289C342.753 767.695 343.013 760.664 342.883 755.195C342.883 749.727 342.753 745.43 342.492 742.305C342.102 738.659 341.581 735.99 340.93 734.297C340.409 732.865 339.432 731.172 338 729.219C336.698 727.656 334.875 725.768 332.531 723.555C330.318 721.211 327.323 718.607 323.547 715.742ZM364.758 787.617C365.018 799.206 365.604 808.125 366.516 814.375C367.557 820.495 368.664 825.052 369.836 828.047C371.268 831.432 372.831 833.451 374.523 834.102C376.997 834.102 379.797 833.06 382.922 830.977C386.047 828.763 389.107 825.443 392.102 821.016C395.227 816.589 398.026 811.055 400.5 804.414C403.104 797.773 404.992 790.026 406.164 781.172C407.336 772.318 407.01 764.505 405.188 757.734C403.365 750.964 400.956 745.299 397.961 740.742C394.966 736.055 391.906 732.539 388.781 730.195C385.656 727.721 383.312 726.484 381.75 726.484C379.927 726.484 378.299 727.005 376.867 728.047C375.435 728.958 373.417 731.107 370.812 734.492C369.51 736.315 368.339 738.919 367.297 742.305C366.385 745.299 365.604 749.271 364.953 754.219C364.302 759.167 364.107 765.547 364.367 773.359L364.758 787.617Z" fill="#EC8205"/>
<path d="M655.695 710.664C660.253 710.664 664.354 711.445 668 713.008C671.776 714.44 675.227 716.068 678.352 717.891C681.607 719.714 684.667 721.406 687.531 722.969C690.396 724.401 693.326 725.117 696.32 725.117C698.664 724.987 701.333 724.661 704.328 724.141C706.932 723.62 709.927 722.839 713.312 721.797C716.828 720.625 720.734 718.932 725.031 716.719C720.734 720.885 717.219 724.401 714.484 727.266C711.88 730 709.862 732.279 708.43 734.102C706.737 736.185 705.5 737.812 704.719 738.984C703.938 740.417 702.766 742.565 701.203 745.43C699.771 748.034 697.818 751.549 695.344 755.977C692.87 760.273 689.745 765.938 685.969 772.969C685.969 763.984 685.057 757.018 683.234 752.07C681.542 747.122 679.654 743.346 677.57 740.742C675.096 737.747 672.297 735.859 669.172 735.078C666.307 734.688 663.443 735.208 660.578 736.641C657.714 737.943 654.849 739.896 651.984 742.5C649.25 745.104 646.581 748.229 643.977 751.875C641.503 755.391 639.224 759.102 637.141 763.008C635.188 766.914 633.56 770.885 632.258 774.922C630.956 778.828 630.109 782.474 629.719 785.859C629.328 788.854 629.263 792.37 629.523 796.406C629.784 800.312 630.37 804.349 631.281 808.516C632.193 812.552 633.365 816.523 634.797 820.43C636.229 824.336 637.987 827.852 640.07 830.977C642.284 833.971 644.758 836.445 647.492 838.398C650.227 840.221 653.352 841.068 656.867 840.938C660.773 840.677 664.615 839.505 668.391 837.422C671.646 835.729 674.966 833.125 678.352 829.609C681.737 825.964 684.667 820.82 687.141 814.18L716.047 819.453C707.714 829.609 699.576 837.227 691.633 842.305C683.82 847.383 676.789 850.964 670.539 853.047C663.247 855.391 656.346 856.497 649.836 856.367C641.633 855.456 633.951 852.982 626.789 848.945C619.628 844.909 613.443 840.026 608.234 834.297C603.156 828.438 599.185 822.057 596.32 815.156C593.456 808.255 592.219 801.484 592.609 794.844C592.87 790.417 593.781 785.273 595.344 779.414C596.906 773.424 598.99 767.305 601.594 761.055C604.328 754.805 607.583 748.685 611.359 742.695C615.135 736.706 619.302 731.367 623.859 726.68C628.417 721.862 633.365 718.021 638.703 715.156C644.172 712.161 649.836 710.664 655.695 710.664ZM786.711 722.773C793.221 723.164 798.69 723.49 803.117 723.75C807.674 723.88 811.451 724.01 814.445 724.141C817.831 724.271 820.695 724.271 823.039 724.141C825.383 724.01 828.573 723.685 832.609 723.164C835.995 722.773 840.487 722.188 846.086 721.406C851.815 720.495 858.911 719.323 867.375 717.891C864.38 720.885 862.036 723.62 860.344 726.094C858.781 728.438 857.544 730.456 856.633 732.148C855.591 734.232 854.875 735.99 854.484 737.422C854.224 738.724 854.484 741.979 855.266 747.188C856.047 752.396 857.154 758.581 858.586 765.742C860.018 772.773 861.581 780.326 863.273 788.398C864.966 796.341 866.659 803.828 868.352 810.859C870.044 817.76 871.542 823.685 872.844 828.633C874.276 833.451 875.318 836.315 875.969 837.227C877.922 839.961 879.159 841.784 879.68 842.695C880.201 843.477 881.112 844.193 882.414 844.844C882.935 845.104 883.781 845.495 884.953 846.016C885.995 846.536 887.362 847.188 889.055 847.969C890.878 848.75 893.156 849.661 895.891 850.703C890.812 850.964 886.451 851.159 882.805 851.289C879.159 851.289 876.164 851.354 873.82 851.484C871.086 851.615 868.742 851.745 866.789 851.875C864.836 851.875 862.492 852.005 859.758 852.266C857.414 852.526 854.354 852.786 850.578 853.047C846.932 853.307 842.635 853.568 837.688 853.828C840.292 852.005 842.375 850.378 843.938 848.945C845.63 847.383 846.932 846.081 847.844 845.039C848.885 843.737 849.602 842.565 849.992 841.523C850.253 840.352 850.448 838.594 850.578 836.25C850.708 834.167 850.708 831.432 850.578 828.047C850.448 824.531 850.122 819.974 849.602 814.375L798.234 819.648C796.932 821.862 795.956 823.815 795.305 825.508C794.654 827.07 794.198 828.438 793.938 829.609C793.547 831.042 793.417 832.214 793.547 833.125C793.807 834.167 794.263 835.404 794.914 836.836C795.565 838.138 796.477 839.701 797.648 841.523C798.951 843.216 800.839 845.234 803.312 847.578C800.057 847.448 796.737 847.383 793.352 847.383C789.966 847.383 786.841 847.448 783.977 847.578C780.591 847.708 777.271 847.839 774.016 847.969C770.76 848.099 767.049 848.294 762.883 848.555C759.367 848.815 755.266 849.141 750.578 849.531C745.76 849.792 740.617 850.182 735.148 850.703C738.534 849.141 741.398 847.578 743.742 846.016C746.086 844.323 748.039 842.76 749.602 841.328C751.424 839.766 752.987 838.268 754.289 836.836C755.201 835.534 757.023 832.539 759.758 827.852C762.492 823.034 765.552 817.37 768.938 810.859C772.453 804.349 776.099 797.383 779.875 789.961C783.781 782.539 787.297 775.573 790.422 769.062C793.547 762.422 796.086 756.693 798.039 751.875C799.992 747.057 800.969 743.932 800.969 742.5C800.708 740.807 800.057 738.919 799.016 736.836C798.104 735.013 796.672 732.93 794.719 730.586C792.896 728.242 790.227 725.638 786.711 722.773ZM847.258 799.922C846.477 795.365 845.76 791.458 845.109 788.203C844.458 784.818 843.938 782.018 843.547 779.805C843.026 777.201 842.635 774.922 842.375 772.969C841.984 771.146 841.529 768.802 841.008 765.938C840.487 763.464 839.836 760.404 839.055 756.758C838.404 752.982 837.557 748.49 836.516 743.281C829.094 758.125 823.299 769.648 819.133 777.852C815.096 785.924 812.167 791.849 810.344 795.625C808.13 800.052 806.893 802.656 806.633 803.438L847.258 799.922ZM919.875 712.422C928.599 713.464 936.151 714.245 942.531 714.766C948.911 715.156 954.185 715.482 958.352 715.742C963.169 716.003 967.206 716.068 970.461 715.938C973.846 715.807 978.469 715.482 984.328 714.961C989.276 714.57 995.786 714.049 1003.86 713.398C1011.93 712.617 1022.02 711.576 1034.13 710.273C1034.26 713.268 1034.33 716.198 1034.33 719.062C1034.46 721.797 1034.59 724.206 1034.72 726.289C1034.85 728.763 1034.91 731.042 1034.91 733.125C1034.91 735.339 1034.78 738.138 1034.52 741.523C1034.26 744.388 1033.81 748.034 1033.16 752.461C1032.64 756.758 1031.79 761.901 1030.62 767.891C1028.79 760.859 1027.04 755.195 1025.34 750.898C1023.65 746.471 1022.09 742.956 1020.66 740.352C1019.09 737.357 1017.53 735.078 1015.97 733.516C1014.28 732.344 1012.26 731.367 1009.91 730.586C1007.83 729.935 1005.16 729.414 1001.91 729.023C998.781 728.633 995.07 728.698 990.773 729.219C990.122 746.406 989.667 760.339 989.406 771.016C989.146 781.693 988.951 790.026 988.82 796.016C988.69 803.177 988.625 808.32 988.625 811.445C988.755 815.872 989.471 820.234 990.773 824.531C991.815 828.177 993.508 831.953 995.852 835.859C998.195 839.766 1001.58 843.216 1006.01 846.211H982.18C979.966 846.211 977.232 846.341 973.977 846.602C971.242 846.862 967.727 847.122 963.43 847.383C959.263 847.643 954.38 848.099 948.781 848.75C950.734 845.365 952.297 842.305 953.469 839.57C954.641 836.836 955.552 834.492 956.203 832.539C956.984 830.195 957.57 828.112 957.961 826.289C958.091 823.685 958.417 818.411 958.938 810.469C959.068 807.214 959.198 803.177 959.328 798.359C959.589 793.542 959.849 787.812 960.109 781.172C960.5 774.531 960.826 766.914 961.086 758.32C961.477 749.596 961.867 739.766 962.258 728.828C959.914 728.177 957.701 728.242 955.617 729.023C953.534 729.674 951.711 730.521 950.148 731.562C948.326 732.865 946.568 734.427 944.875 736.25C943.182 738.464 941.294 741.328 939.211 744.844C937.388 747.839 935.305 751.81 932.961 756.758C930.617 761.576 927.948 767.565 924.953 774.727C924.302 767.174 923.846 760.99 923.586 756.172C923.326 751.224 923.13 747.383 923 744.648C922.87 741.393 922.805 738.984 922.805 737.422C922.805 735.99 922.674 734.102 922.414 731.758C922.154 729.805 921.828 727.266 921.438 724.141C921.047 720.885 920.526 716.979 919.875 712.422Z" fill="black"/>
<path d="M255 937.765H240.636V891.219H255.636C260.152 891.219 264.015 892.151 267.227 894.015C270.439 895.863 272.902 898.522 274.614 901.992C276.326 905.446 277.182 909.583 277.182 914.401C277.182 919.249 276.318 923.424 274.591 926.924C272.864 930.409 270.348 933.09 267.045 934.969C263.742 936.833 259.727 937.765 255 937.765ZM246.273 932.765H254.636C258.485 932.765 261.674 932.022 264.205 930.537C266.735 929.053 268.621 926.939 269.864 924.196C271.106 921.454 271.727 918.189 271.727 914.401C271.727 910.643 271.114 907.409 269.886 904.696C268.659 901.969 266.826 899.878 264.386 898.424C261.947 896.954 258.909 896.219 255.273 896.219H246.273V932.765ZM298.709 937.765V902.856H304.073V937.765H298.709ZM301.436 897.037C300.391 897.037 299.489 896.681 298.732 895.969C297.989 895.257 297.618 894.401 297.618 893.401C297.618 892.401 297.989 891.545 298.732 890.833C299.489 890.121 300.391 889.765 301.436 889.765C302.482 889.765 303.376 890.121 304.118 890.833C304.876 891.545 305.255 892.401 305.255 893.401C305.255 894.401 304.876 895.257 304.118 895.969C303.376 896.681 302.482 897.037 301.436 897.037ZM340.787 951.583C338.197 951.583 335.969 951.249 334.106 950.583C332.242 949.931 330.689 949.068 329.447 947.992C328.219 946.931 327.242 945.795 326.515 944.583L330.787 941.583C331.272 942.219 331.886 942.946 332.628 943.765C333.371 944.598 334.386 945.318 335.674 945.924C336.977 946.545 338.681 946.856 340.787 946.856C343.606 946.856 345.931 946.174 347.765 944.81C349.598 943.446 350.515 941.31 350.515 938.401V931.31H350.06C349.666 931.946 349.106 932.734 348.378 933.674C347.666 934.598 346.636 935.424 345.287 936.151C343.954 936.863 342.151 937.219 339.878 937.219C337.06 937.219 334.53 936.553 332.287 935.219C330.06 933.886 328.295 931.946 326.992 929.401C325.704 926.856 325.06 923.765 325.06 920.128C325.06 916.553 325.689 913.439 326.947 910.787C328.204 908.121 329.954 906.06 332.197 904.606C334.439 903.136 337.03 902.401 339.969 902.401C342.242 902.401 344.045 902.78 345.378 903.537C346.727 904.28 347.757 905.128 348.469 906.083C349.197 907.022 349.757 907.795 350.151 908.401H350.697V902.856H355.878V938.765C355.878 941.765 355.197 944.204 353.833 946.083C352.484 947.977 350.666 949.363 348.378 950.242C346.106 951.136 343.575 951.583 340.787 951.583ZM340.606 932.401C342.757 932.401 344.575 931.909 346.06 930.924C347.545 929.939 348.674 928.522 349.447 926.674C350.219 924.825 350.606 922.613 350.606 920.037C350.606 917.522 350.227 915.303 349.469 913.378C348.712 911.454 347.591 909.946 346.106 908.856C344.621 907.765 342.787 907.219 340.606 907.219C338.333 907.219 336.439 907.795 334.924 908.946C333.424 910.098 332.295 911.643 331.537 913.583C330.795 915.522 330.424 917.674 330.424 920.037C330.424 922.462 330.803 924.606 331.56 926.469C332.333 928.318 333.469 929.772 334.969 930.833C336.484 931.878 338.363 932.401 340.606 932.401ZM378.497 937.765V902.856H383.86V937.765H378.497ZM381.224 897.037C380.178 897.037 379.277 896.681 378.519 895.969C377.777 895.257 377.406 894.401 377.406 893.401C377.406 892.401 377.777 891.545 378.519 890.833C379.277 890.121 380.178 889.765 381.224 889.765C382.269 889.765 383.163 890.121 383.906 890.833C384.663 891.545 385.042 892.401 385.042 893.401C385.042 894.401 384.663 895.257 383.906 895.969C383.163 896.681 382.269 897.037 381.224 897.037ZM421.666 902.856V907.401H403.575V902.856H421.666ZM408.848 894.492H414.211V927.765C414.211 929.28 414.431 930.416 414.87 931.174C415.325 931.916 415.901 932.416 416.598 932.674C417.31 932.916 418.06 933.037 418.848 933.037C419.439 933.037 419.923 933.007 420.302 932.946C420.681 932.871 420.984 932.81 421.211 932.765L422.302 937.583C421.939 937.719 421.431 937.856 420.78 937.992C420.128 938.143 419.302 938.219 418.302 938.219C416.787 938.219 415.302 937.893 413.848 937.242C412.408 936.59 411.211 935.598 410.257 934.265C409.317 932.931 408.848 931.249 408.848 929.219V894.492ZM452.807 938.583C450.595 938.583 448.587 938.166 446.784 937.333C444.981 936.484 443.549 935.265 442.489 933.674C441.428 932.068 440.898 930.128 440.898 927.856C440.898 925.856 441.292 924.234 442.08 922.992C442.867 921.734 443.92 920.749 445.239 920.037C446.557 919.325 448.011 918.795 449.602 918.446C451.208 918.083 452.822 917.795 454.443 917.583C456.564 917.31 458.284 917.106 459.602 916.969C460.936 916.818 461.905 916.568 462.511 916.219C463.133 915.871 463.443 915.265 463.443 914.401V914.219C463.443 911.977 462.83 910.234 461.602 908.992C460.39 907.749 458.549 907.128 456.08 907.128C453.519 907.128 451.511 907.689 450.057 908.81C448.602 909.931 447.58 911.128 446.989 912.401L441.898 910.583C442.807 908.462 444.019 906.81 445.534 905.628C447.064 904.431 448.731 903.598 450.534 903.128C452.352 902.643 454.14 902.401 455.898 902.401C457.019 902.401 458.307 902.537 459.761 902.81C461.231 903.068 462.648 903.606 464.011 904.424C465.39 905.242 466.534 906.477 467.443 908.128C468.352 909.78 468.807 911.992 468.807 914.765V937.765H463.443V933.037H463.17C462.807 933.795 462.201 934.606 461.352 935.469C460.504 936.333 459.375 937.068 457.966 937.674C456.557 938.28 454.837 938.583 452.807 938.583ZM453.625 933.765C455.746 933.765 457.534 933.348 458.989 932.515C460.458 931.681 461.564 930.606 462.307 929.287C463.064 927.969 463.443 926.583 463.443 925.128V920.219C463.216 920.492 462.716 920.742 461.943 920.969C461.186 921.181 460.307 921.371 459.307 921.537C458.322 921.689 457.36 921.825 456.42 921.946C455.496 922.053 454.746 922.143 454.17 922.219C452.777 922.401 451.473 922.696 450.261 923.106C449.064 923.499 448.095 924.098 447.352 924.901C446.625 925.689 446.261 926.765 446.261 928.128C446.261 929.992 446.951 931.401 448.33 932.356C449.723 933.295 451.489 933.765 453.625 933.765ZM496.76 891.219V937.765H491.397V891.219H496.76ZM576.366 902.856C576.093 900.553 574.987 898.765 573.048 897.492C571.108 896.219 568.73 895.583 565.911 895.583C563.851 895.583 562.048 895.916 560.502 896.583C558.972 897.249 557.775 898.166 556.911 899.333C556.063 900.499 555.639 901.825 555.639 903.31C555.639 904.553 555.934 905.621 556.525 906.515C557.131 907.393 557.904 908.128 558.843 908.719C559.783 909.295 560.767 909.772 561.798 910.151C562.828 910.515 563.775 910.81 564.639 911.037L569.366 912.31C570.578 912.628 571.927 913.068 573.411 913.628C574.911 914.189 576.343 914.954 577.707 915.924C579.086 916.878 580.222 918.106 581.116 919.606C582.01 921.106 582.457 922.946 582.457 925.128C582.457 927.643 581.798 929.916 580.48 931.946C579.177 933.977 577.267 935.59 574.752 936.787C572.252 937.984 569.214 938.583 565.639 938.583C562.305 938.583 559.419 938.045 556.98 936.969C554.555 935.893 552.646 934.393 551.252 932.469C549.873 930.545 549.093 928.31 548.911 925.765H554.73C554.881 927.522 555.472 928.977 556.502 930.128C557.548 931.265 558.866 932.113 560.457 932.674C562.063 933.219 563.79 933.492 565.639 933.492C567.79 933.492 569.722 933.143 571.434 932.446C573.146 931.734 574.502 930.749 575.502 929.492C576.502 928.219 577.002 926.734 577.002 925.037C577.002 923.492 576.57 922.234 575.707 921.265C574.843 920.295 573.707 919.507 572.298 918.901C570.889 918.295 569.366 917.765 567.73 917.31L562.002 915.674C558.366 914.628 555.487 913.136 553.366 911.196C551.245 909.257 550.184 906.719 550.184 903.583C550.184 900.977 550.889 898.704 552.298 896.765C553.722 894.81 555.631 893.295 558.025 892.219C560.434 891.128 563.123 890.583 566.093 890.583C569.093 890.583 571.76 891.121 574.093 892.196C576.427 893.257 578.275 894.712 579.639 896.56C581.017 898.409 581.745 900.507 581.82 902.856H576.366ZM618.978 902.856V907.401H600.888V902.856H618.978ZM606.16 894.492H611.524V927.765C611.524 929.28 611.744 930.416 612.183 931.174C612.638 931.916 613.213 932.416 613.91 932.674C614.622 932.916 615.372 933.037 616.16 933.037C616.751 933.037 617.236 933.007 617.615 932.946C617.994 932.871 618.297 932.81 618.524 932.765L619.615 937.583C619.251 937.719 618.744 937.856 618.092 937.992C617.441 938.143 616.615 938.219 615.615 938.219C614.1 938.219 612.615 937.893 611.16 937.242C609.721 936.59 608.524 935.598 607.569 934.265C606.63 932.931 606.16 931.249 606.16 929.219V894.492ZM661.847 923.492V902.856H667.21V937.765H661.847V931.856H661.483C660.665 933.628 659.392 935.136 657.665 936.378C655.938 937.606 653.756 938.219 651.119 938.219C648.938 938.219 646.998 937.742 645.301 936.787C643.604 935.818 642.271 934.363 641.301 932.424C640.331 930.469 639.847 928.007 639.847 925.037V902.856H645.21V924.674C645.21 927.219 645.922 929.249 647.347 930.765C648.786 932.28 650.619 933.037 652.847 933.037C654.18 933.037 655.536 932.696 656.915 932.015C658.309 931.333 659.475 930.287 660.415 928.878C661.369 927.469 661.847 925.674 661.847 923.492ZM703.016 938.492C700.107 938.492 697.539 937.757 695.311 936.287C693.084 934.803 691.342 932.712 690.084 930.015C688.827 927.303 688.198 924.098 688.198 920.401C688.198 916.734 688.827 913.553 690.084 910.856C691.342 908.159 693.092 906.075 695.334 904.606C697.577 903.136 700.167 902.401 703.107 902.401C705.38 902.401 707.175 902.78 708.493 903.537C709.827 904.28 710.842 905.128 711.539 906.083C712.251 907.022 712.804 907.795 713.198 908.401H713.652V891.219H719.016V937.765H713.834V932.401H713.198C712.804 933.037 712.243 933.84 711.516 934.81C710.789 935.765 709.751 936.621 708.402 937.378C707.054 938.121 705.258 938.492 703.016 938.492ZM703.743 933.674C705.895 933.674 707.713 933.113 709.198 931.992C710.683 930.856 711.811 929.287 712.584 927.287C713.357 925.272 713.743 922.946 713.743 920.31C713.743 917.704 713.364 915.424 712.607 913.469C711.849 911.499 710.728 909.969 709.243 908.878C707.758 907.772 705.925 907.219 703.743 907.219C701.47 907.219 699.577 907.803 698.061 908.969C696.561 910.121 695.433 911.689 694.675 913.674C693.933 915.643 693.561 917.856 693.561 920.31C693.561 922.795 693.94 925.053 694.698 927.083C695.47 929.098 696.607 930.704 698.107 931.901C699.622 933.083 701.501 933.674 703.743 933.674ZM742.384 937.765V902.856H747.748V937.765H742.384ZM745.111 897.037C744.066 897.037 743.164 896.681 742.407 895.969C741.664 895.257 741.293 894.401 741.293 893.401C741.293 892.401 741.664 891.545 742.407 890.833C743.164 890.121 744.066 889.765 745.111 889.765C746.157 889.765 747.051 890.121 747.793 890.833C748.551 891.545 748.93 892.401 748.93 893.401C748.93 894.401 748.551 895.257 747.793 895.969C747.051 896.681 746.157 897.037 745.111 897.037ZM784.553 938.492C781.402 938.492 778.637 937.742 776.258 936.242C773.894 934.742 772.046 932.643 770.713 929.946C769.394 927.249 768.735 924.098 768.735 920.492C768.735 916.856 769.394 913.681 770.713 910.969C772.046 908.257 773.894 906.151 776.258 904.651C778.637 903.151 781.402 902.401 784.553 902.401C787.705 902.401 790.463 903.151 792.826 904.651C795.205 906.151 797.053 908.257 798.372 910.969C799.705 913.681 800.372 916.856 800.372 920.492C800.372 924.098 799.705 927.249 798.372 929.946C797.053 932.643 795.205 934.742 792.826 936.242C790.463 937.742 787.705 938.492 784.553 938.492ZM784.553 933.674C786.947 933.674 788.917 933.06 790.463 931.833C792.008 930.606 793.152 928.992 793.894 926.992C794.637 924.992 795.008 922.825 795.008 920.492C795.008 918.159 794.637 915.984 793.894 913.969C793.152 911.954 792.008 910.325 790.463 909.083C788.917 907.84 786.947 907.219 784.553 907.219C782.159 907.219 780.19 907.84 778.644 909.083C777.099 910.325 775.955 911.954 775.213 913.969C774.47 915.984 774.099 918.159 774.099 920.492C774.099 922.825 774.47 924.992 775.213 926.992C775.955 928.992 777.099 930.606 778.644 931.833C780.19 933.06 782.159 933.674 784.553 933.674Z" fill="black"/>
<line x1="854" y1="913.884" x2="1026" y2="913.884" stroke="black" stroke-width="2"/>
<line x1="8" y1="913.884" x2="180" y2="913.884" stroke="black" stroke-width="2"/>
</svg>
