<svg width="496" height="496" fill="none" xmlns="http://www.w3.org/2000/svg"><path d="M360 160c-13.233 0-24 10.766-24 24s10.767 24 24 24 24-10.766 24-24-10.767-24-24-24Zm0 32c-4.411 0-8-3.589-8-8s3.589-8 8-8 8 3.589 8 8-3.589 8-8 8ZM168 168c0-13.234-10.767-24-24-24s-24 10.766-24 24 10.767 24 24 24 24-10.766 24-24Zm-32 0c0-4.411 3.589-8 8-8s8 3.589 8 8-3.589 8-8 8-8-3.589-8-8Z" fill="#000"/><path d="M496 184c0-74.991-61.01-136-136-136-8.951 0-17.699.878-26.171 2.537C313.316 19.228 278.066 0 240.446 0H127.554C66.043 0 16 50.043 16 111.554c0 17.228 4.072 34.479 11.777 49.888l14.006 28.012A59.183 59.183 0 0 1 48 215.79a58.812 58.812 0 0 1-40.268 55.866L0 274.235V280c0 1.508.725 34.905 59.174 55.545a102.761 102.761 0 0 0-4.052 4.68C40.212 358.67 32 381.89 32 405.608V480h300.305c5.542 9.555 15.877 16 27.695 16 17.645 0 32-14.355 32-32v-81.013c13.786-3.561 24-16.104 24-30.987v-16c0-9.437-4.109-17.93-10.628-23.792C458.119 293.485 496 243.087 496 184ZM17.428 285.12A74.785 74.785 0 0 0 64 215.79a75.263 75.263 0 0 0-7.906-33.491l-14.006-28.012C35.488 141.088 32 126.311 32 111.554 32 58.865 74.865 16 127.554 16h112.893c30.407 0 59.009 14.668 76.906 38.857-27.089 8.969-50.428 26.237-66.996 48.78a38.414 38.414 0 0 1-30.611-23.815C215.9 70.21 206.728 64 196.375 64a25.139 25.139 0 0 0-23.878 17.21l-2.397 7.191a91.21 91.21 0 0 1-6.332-10.752C159.56 69.23 151.097 64 141.684 64c-11.729 0-21.911 8.348-24.212 19.849L113.441 104h-2.083c-12.74 0-23.549 9.945-24.606 22.641l-1.697 20.365-4.497-1.799C70.499 141.184 64 131.584 64 120.751a26.307 26.307 0 0 1 18.013-24.989l.52-.173-5.064-15.178-.517.173A42.285 42.285 0 0 0 48 120.751c0 17.413 10.447 32.844 26.615 39.312l9.05 3.62-3.369 40.429a86.56 86.56 0 0 0-.296 7.125 85.697 85.697 0 0 0 64 83.003v3.292l-29.791 6.384c-15.138 3.244-29.322 9.883-41.504 19.219-39.993-12.015-51.808-29.378-55.277-38.015ZM352 344c0 4.411-3.589 8-8 8h-8c-8.822 0-16-7.178-16-16s7.178-16 16-16h8c4.411 0 8 3.589 8 8v16Zm-44.059-23.368a104.162 104.162 0 0 0-38.15-16.715L240 297.533v-3.286l2.84-.71a80.235 80.235 0 0 0 24.11-10.449c13.579 12.759 29.771 22.764 47.678 29.12a32.21 32.21 0 0 0-6.687 8.424Zm-68.982-42.618L224 281.753V304c0 13.234-10.767 24-24 24h-16c-13.233 0-24-10.766-24-24v-22.247l-11.111-2.777A69.722 69.722 0 0 1 96 211.237c0-1.924.081-3.876.241-5.798l6.456-77.469c.372-4.469 4.177-7.97 8.661-7.97h15.2l6.603-33.013A8.715 8.715 0 0 1 141.683 80a8.643 8.643 0 0 1 7.774 4.805 107.074 107.074 0 0 0 80.876 58.153A135.538 135.538 0 0 0 224 184c0 33.159 11.935 63.58 31.727 87.206a64.447 64.447 0 0 1-16.768 6.808ZM160 335.978A39.788 39.788 0 0 0 184 344h16c8.998 0 17.31-2.988 24-8.022V464h-64V335.978Zm76.281-208.428a91.046 91.046 0 0 1-54.07-24.884l5.466-16.396a9.157 9.157 0 0 1 8.698-6.27 9.129 9.129 0 0 1 8.515 5.764 54.42 54.42 0 0 0 36.198 32.304 136.087 136.087 0 0 0-4.807 9.482ZM48 405.608c0-41.222 29.255-77.41 69.561-86.047L144 313.896V464h-33.223l-9.306-55.836c-3.071-18.421 2.979-37.302 16.186-50.507l-11.314-11.313c-16.851 16.851-24.572 40.945-20.654 64.452L94.556 464H48v-58.392ZM289.444 464l8.867-53.205c3.918-23.507-3.804-47.601-20.654-64.452l-11.314 11.313c13.206 13.206 19.257 32.086 16.186 50.508L273.223 464H240V313.896l26.438 5.665a88.097 88.097 0 0 1 37.613 18.212c.774 14.098 10.714 25.795 23.948 29.214V464h-38.555ZM376 464c0 8.822-7.178 16-16 16s-16-7.178-16-16v-96c3.124 0 6.106-.606 8.846-1.697C355.622 376.488 364.948 384 376 384v80Zm24-112c0 8.822-7.178 16-16 16h-8c-4.411 0-8-3.589-8-8v-32c0-4.411 3.589-8 8-8h8c8.822 0 16 7.178 16 16v16Zm-40-48c-66.168 0-120-53.832-120-120S293.832 64 360 64s120 53.832 120 120-53.832 120-120 120Z" fill="#000"/><path d="M360 80c-57.346 0-104 46.654-104 104s46.654 104 104 104 104-46.654 104-104S417.346 80 360 80Zm84.733 110.976-4.979 4.149a124.513 124.513 0 0 1-33.085 19.781A55.672 55.672 0 0 0 416 184a55.665 55.665 0 0 0-9.332-30.906 124.55 124.55 0 0 1 33.085 19.781l4.979 4.149A9.058 9.058 0 0 1 448 184a9.057 9.057 0 0 1-3.267 6.976ZM272 184a9.057 9.057 0 0 1 3.267-6.976l4.979-4.149a124.513 124.513 0 0 1 33.085-19.781A55.672 55.672 0 0 0 304 184a55.665 55.665 0 0 0 9.332 30.906 124.55 124.55 0 0 1-33.085-19.781l-4.979-4.149A9.055 9.055 0 0 1 272 184Zm48 0c0-22.056 17.944-40 40-40s40 17.944 40 40-17.944 40-40 40-40-17.944-40-40Zm40-88c38.461 0 71.233 24.804 83.174 59.253C419.139 137.626 389.928 128 360 128c-29.928 0-59.139 9.626-83.174 27.253C288.767 120.804 321.539 96 360 96Zm0 176c-38.461 0-71.233-24.804-83.174-59.253C300.861 230.374 330.072 240 360 240c29.928 0 59.139-9.626 83.174-27.253C431.233 247.196 398.461 272 360 272Z" fill="#EC8205"/><path d="M184 248c-13.233 0-24-10.767-24-24h-16c0 22.056 17.944 40 40 40s40-17.944 40-40h-16c0 13.233-10.767 24-24 24Z" fill="#000"/></svg>