<svg width="510" height="510" fill="none" xmlns="http://www.w3.org/2000/svg"><path fill-rule="evenodd" clip-rule="evenodd" d="M391.095 41.494h-8.633a11.051 11.051 0 0 0-7.642 3.157l-.065.044-.15.153a11.33 11.33 0 0 0-3.273 7.98v7.344h-.043c0 3.727-2.475 6.95-6.006 7.87a83.72 83.72 0 0 0-11.345 3.901 80.975 80.975 0 0 0-10.376 5.24 7.881 7.881 0 0 1-10.118-1.009l-5.102-5.195h-.022c-4.349-4.406-11.367-4.406-15.737 0l-6.092 6.204c-4.306 4.45-4.306 11.597 0 16.025l5.102 5.195v.022c2.583 2.609 3.078 6.686 1.227 9.887a88.577 88.577 0 0 0-9.02 21.834c-.646 3.946-3.983 6.817-7.901 6.84h-7.212c-6.136.022-11.108 5.064-11.13 11.311v8.791c.022 6.248 4.995 11.311 11.13 11.333h7.212v.044c3.638 0 6.824 2.521 7.728 6.094a88.93 88.93 0 0 0 8.956 22.141c2.131 3.245 1.722 7.563-.969 10.303l-5.102 5.196h-.022c-4.305 4.45-4.305 11.596 0 16.047l6.093 6.204h.021c4.349 4.384 11.367 4.384 15.738 0l5.102-5.196c2.583-2.631 6.587-3.157 9.709-1.249a85.831 85.831 0 0 0 21.463 9.185c3.875.657 6.717 4.055 6.717 8.045v7.344c0 3.003 1.184 5.875 3.272 8.001l.215.22v-.022a10.86 10.86 0 0 0 7.642 3.134h8.633c6.114-.043 11.087-5.085 11.108-11.333v-7.322h.043c0-3.705 2.476-6.927 6.007-7.848a82.603 82.603 0 0 0 11.345-3.902 80.935 80.935 0 0 0 10.376-5.239 7.882 7.882 0 0 1 10.118 1.008l5.102 5.196h.022c4.348 4.384 11.366 4.384 15.737 0l6.092-6.204c4.327-4.45 4.327-11.597 0-16.025l-5.102-5.196v-.022c-2.583-2.63-3.078-6.686-1.227-9.886a88.784 88.784 0 0 0 9.02-21.856c.646-3.924 3.983-6.817 7.901-6.817h7.212c6.157-.022 11.13-5.086 11.151-11.356v-8.79c-.022-6.226-4.994-11.29-11.13-11.312h-7.212v-.044c-3.638 0-6.803-2.521-7.706-6.116a86.332 86.332 0 0 0-3.832-11.552 86.85 86.85 0 0 0-5.145-10.567c-2.132-3.244-1.723-7.563.99-10.303l5.102-5.195v-.022c4.305-4.428 4.305-11.575 0-16.025l-6.093-6.204a11.045 11.045 0 0 0-15.758 0l-5.102 5.195c-2.584 2.609-6.566 3.113-9.688 1.228a86.102 86.102 0 0 0-21.506-9.185c-3.853-.636-6.695-4.056-6.695-8.046V52.83c-.043-6.248-4.995-11.291-11.13-11.335Zm27.943 78.393c15.393 15.653 17.761 40.227 5.683 58.64-12.099 18.436-35.284 25.605-55.392 17.121-20.109-8.484-31.539-30.252-27.298-51.976 4.241-21.747 22.992-37.399 44.757-37.399 12.098-.022 23.703 4.889 32.25 13.614Zm-32.249-29.9c29.385 0 54.681 21.154 60.408 50.485 5.726 29.354-9.709 58.752-36.856 70.195-27.147 11.465-58.468 1.775-74.786-23.106-16.34-24.881-13.132-58.05 7.663-79.202 11.54-11.794 27.21-18.395 43.571-18.373ZM165.936 422.781c2.368 1.052 5.102.899 7.319-.46 2.239-1.359 3.681-3.727 3.896-6.357l3.036-38.035a8.202 8.202 0 0 0-1.507-5.414L65.184 184.907c-2.8-4.625-7.298-7.935-12.486-9.207a19.791 19.791 0 0 0-15.22 2.521l-4.35 2.741V33.76h44.456-.022c2.777 0 5.016-2.28 5.016-5.108 0-2.806-2.239-5.086-5.016-5.086H28.134c-2.756 0-4.994 2.28-4.994 5.086v158.583l-2.713 1.688h-.021c-4.543 2.85-7.794 7.431-9.02 12.714-1.228 5.305-.345 10.874 2.475 15.499l9.279 15.345v234.873c0 2.806 2.239 5.086 4.994 5.086h304.987a5.046 5.046 0 0 0 3.552-1.491 5.224 5.224 0 0 0 1.463-3.595V247.432a31.876 31.876 0 0 0 1.529-1.447l.861-.899c2.39 1.228 4.822 2.39 7.298 3.442a88.945 88.945 0 0 0 7.513 2.806v1.271c0 6.248 2.088 12.32 5.92 17.209V489.27c0 3.727-2.97 6.73-6.609 6.73H6.609C2.971 496 0 492.997 0 489.27V6.73C0 3.003 2.97 0 6.609 0H354.67c3.66 0 6.609 3.003 6.609 6.73v28.914a27.679 27.679 0 0 0-5.92 17.187v1.272c-2.561.855-5.08 1.775-7.513 2.806a99.552 99.552 0 0 0-7.298 3.441l-.861-.898a31.876 31.876 0 0 0-1.528-1.447V28.65h-.022c0-1.337-.517-2.63-1.464-3.595a4.87 4.87 0 0 0-3.53-1.49h-49.472c-2.755 0-4.994 2.28-4.994 5.085 0 2.806 2.239 5.086 4.994 5.086h44.455v18.765a26.691 26.691 0 0 0-7.663-1.118c-7.191-.022-14.08 2.872-19.182 8.046l-6.092 6.247c-10.571 10.786-10.571 28.258 0 39.065l.882.877a115.684 115.684 0 0 0-3.38 7.431 92.702 92.702 0 0 0-2.755 7.651h-1.249c-14.962.044-27.082 12.386-27.125 27.622v8.79c.043 15.258 12.163 27.6 27.125 27.644h1.249c.839 2.608 1.744 5.173 2.755 7.65a112.964 112.964 0 0 0 3.359 7.432l-.861.877c-10.571 10.807-10.571 28.279 0 39.064l6.092 6.204v.022c5.102 5.174 11.991 8.067 19.182 8.067 2.605 0 5.166-.394 7.663-1.118v209.333l-294.994-.022V249.011l94.251 155.732v.022a7.994 7.994 0 0 0 4.069 3.77l34.484 14.247Zm-37.545-47.307 24.197-15.148L51.624 193.438a4.275 4.275 0 0 0-5.77-1.403l-4.305 2.696 99.311 164.106c1.442 2.389.71 5.524-1.637 6.993-2.346 1.469-5.403.723-6.845-1.666L33.067 200.058l-4.284 2.697c-1.916 1.249-2.54 3.836-1.378 5.853l100.964 166.867h.022Zm32.55-1.359-24.197 15.147 3.1 5.13 22.26 9.185 1.937-24.377-3.1-5.13v.045Zm137.26-52.196h-42.862v43.646h42.862V321.92Zm-50.87-16.266h58.881c4.413 0 7.986 3.639 7.986 8.155V373.7c0 4.516-3.573 8.155-7.986 8.155h-58.881a7.945 7.945 0 0 1-5.662-2.39c-1.485-1.513-2.325-3.595-2.325-5.765v-30.647c-46.048-14.556-81.829-40.467-106.431-78.696-23.228-36.106-36.296-83.063-38.428-141.725l-23.55 18.984h-.022a7.87 7.87 0 0 1-11.173-1.337c-2.734-3.53-2.153-8.616 1.313-11.399l35.951-28.981c2.95-2.543 7.277-2.543 10.248 0l35.951 28.981c3.445 2.784 4.026 7.869 1.313 11.399-2.734 3.507-7.749 4.099-11.194 1.337l-22.884-18.458c2.153 55.002 14.338 98.843 35.823 132.274 22.087 33.737 54.982 58.662 93.088 70.52v-12.167c0-2.17.84-4.231 2.325-5.765a7.949 7.949 0 0 1 5.662-2.389l-.005.023Zm-3.531-87.558-18.643-18.962 18.643-18.985h.022c3.014-3.178 2.949-8.264-.129-11.399a7.898 7.898 0 0 0-11.195-.109l-18.643 18.984-18.621-18.984a7.89 7.89 0 0 0-11.303 0c-3.121 3.178-3.121 8.352 0 11.531l18.643 18.984-18.643 18.962c-3.121 3.179-3.121 8.331 0 11.509a7.89 7.89 0 0 0 11.303 0l18.643-18.984 18.643 18.984h-.022a7.897 7.897 0 0 0 11.194-.109c3.079-3.135 3.144-8.199.13-11.399l-.022-.023ZM79.006 442.884h203.267c2.175.131 4.328-.68 5.92-2.214a8.228 8.228 0 0 0 2.498-5.919 8.177 8.177 0 0 0-2.498-5.897 7.893 7.893 0 0 0-5.92-2.236H79.006c-4.262.219-7.6 3.792-7.6 8.132 0 4.341 3.338 7.915 7.6 8.134Zm36.145-379.05h155.993V12.91H90.136v50.924h25.015Z" fill="#000"/></svg>