<svg width="530" height="530" fill="none" xmlns="http://www.w3.org/2000/svg"><path d="m78.054 453.133 19.402-12.753-51.004-78.393-19.367 12.789 50.97 78.357Zm-27.05 17.833L70.372 458.2l-50.97-78.392L0 392.596l51.004 78.37Zm24.413-5.033-19.402 12.754L67.265 496l19.401-12.788-11.249-17.279Zm27.05-17.866L83.1 460.855l11.214 17.278 19.402-12.765-11.249-17.301Zm339.83-96.029c-7.568-12.892-28.438-13.18-40.856-8.471l-87.148 33.136c9.781 4.548 19.631 9.026 29.412 13.574l98.592-38.239ZM219.383 408.64l87.113 20.879c23.92 5.725 44.858-26.039 34.263-30.424-28.186-11.681-61.692-28.036-87.079-44.206-69.134-44.067-132.258-46.952-193.273 11.715l52.529 80.712c25.227-15.281 61.428-4.616 99.979 6.775 37.474 11.023 77.229 22.773 108.797 10.769l162.657-80.227c14.333-7.064 15.021-17.371 4.254-24.735-8.061-5.494-21.191-7.721-35.272-2.262L351.388 397.19c7.568 16.459-18.886 48.026-47.002 41.285l-87.113-20.844c-8.13-1.951-4.942-10.63 2.11-8.991ZM361.009 0c-12.9 0-25.158 4.848-34.584 13.712 30.032 17.209 53.894 43.813 67.769 75.645 10.985-9.614 17.395-23.453 17.395-38.446C411.577 22.772 388.919 0 361.009 0ZM133.21 0c-27.922 0-50.58 22.772-50.58 50.911 0 14.82 6.306 28.728 17.395 38.446 13.875-31.832 37.737-58.436 67.768-75.645C158.368 4.848 146.121 0 133.21 0Zm40.89 274.142A135.968 135.968 0 0 1 157.393 262l-16.386 20.545c-5.653 7.098.069 17.763 9.162 16.747 2.637-.289 5.229-1.674 6.892-3.797l17.039-21.353ZM336.848 262a138.978 138.978 0 0 1-16.741 12.142l17.028 21.364c5.458 6.972 17.223 4.063 18.267-5.332a10.387 10.387 0 0 0-2.179-7.618L336.848 262Zm-25.25-172.608c-35.627-35.86-93.351-35.86-128.978 0-35.627 35.86-35.627 93.962 0 129.823 35.627 35.86 93.351 35.86 128.978 0 35.628-35.861 35.628-93.974 0-129.823Zm-74.213 74.687c8.646 8.703 23.473 2.516 23.473-9.787 0-12.431-14.953-18.352-23.473-9.788-5.355 5.413-5.355 14.174 0 19.575Zm-64.386-5.171c-6.043 0-6.043-9.222 0-9.222h51.647c1.823-9.025 8.91-16.158 17.877-17.993V91.481c0-6.083 9.162-6.083 9.162 0v40.212c17.75 3.635 24.607 25.877 11.638 38.93-12.969 13.02-35.077 6.152-38.677-11.715h-51.647Zm-56.302-9.222h30.135c2.339-52.123 43.918-93.962 95.691-96.316V23.038C174.1 25.427 119.071 80.816 116.697 149.686Zm125.826 135.871v-30.332c-51.784-2.354-93.352-44.205-95.691-96.317h-30.135c2.374 68.871 57.403 124.26 125.826 126.649Zm104.863-135.871h30.135c-2.374-68.87-57.403-124.26-125.825-126.648V53.37c51.773 2.354 93.351 44.193 95.69 96.316Zm30.135 9.222h-30.135c-2.339 52.123-43.917 93.963-95.69 96.317v30.332c68.411-2.389 123.451-57.778 125.825-126.649ZM352.065 44.436l-8.027 8.668c4.025 3.89 7.797 8.045 11.341 12.396l9.529-7.006a161.578 161.578 0 0 0-12.843-14.058Zm-201.884 8.668-8.027-8.668a154.413 154.413 0 0 0-12.809 14.07l9.495 7.006c3.543-4.363 7.316-8.518 11.341-12.408Z" fill="#EC8205"/></svg>