<svg width="512" height="512" fill="none" xmlns="http://www.w3.org/2000/svg"><path d="M256 292a8 8 0 1 0 0-16 8 8 0 0 0 0 16ZM336 292a8 8 0 1 0 0-16 8 8 0 0 0 0 16ZM184 292a8 8 0 1 0 0-16 8 8 0 0 0 0 16ZM32 365.6c0 3.52 3.6 6.4 8 6.4h432c4.4 0 8-2.88 8-6.4v-19.2H32v19.2ZM88 276c4.418 0 8-3.358 8-7.5 0-4.142-3.582-7.5-8-7.5s-8 3.358-8 7.5c0 4.142 3.582 7.5 8 7.5Z" fill="#EC8205"/><path d="M298 396h-68l-19.2 92.8H168V512h192v-23.2h-42.8L298 396Z" fill="#000"/><path d="M424 276c4.418 0 8-3.358 8-7.5 0-4.142-3.582-7.5-8-7.5s-8 3.358-8 7.5c0 4.142 3.582 7.5 8 7.5Z" fill="#EC8205"/><path d="M472 45.633H338c2.1 5.267 3.6 10.634 4.6 16.199 44 3.578 76.8 42.038 73.1 85.766-3.4 41.243-38.1 72.946-79.7 72.946h-16v-15.901h16c35.3 0 64-28.522 64-63.604s-28.7-63.604-64-63.604c-14.6-.1-28.8 4.969-40.2 14.112-11.2 8.944-19 21.466-22.2 35.38l-15.6-3.479c7.5-32.696 34.8-57.243 68.3-61.218-8.5-38.56-46.9-63.008-85.7-54.56-38.8 8.446-63.4 46.609-54.9 85.169 7.2 32.796 36.5 56.25 70.3 56.25v15.901c-48.4-.1-87.7-38.858-88-86.959-35.1 4.373-59.9 36.175-55.5 71.058 4 31.802 31.2 55.653 63.5 55.653h16v15.901h-16c-44.2 0-80-35.578-80-79.505 0-41.342 31.9-75.828 73.4-79.207 1-5.565 2.6-10.932 4.6-16.199H40c-4.4 0-8 3.578-8 7.95V324h448V53.583c0-4.372-3.6-7.95-8-7.95ZM121.4 276.198h-10.7c-4.4 12.422-18.1 18.882-30.6 14.509-12.5-4.373-19.1-17.988-14.7-30.41 4.4-12.423 18.1-18.883 30.6-14.51 6.8 2.385 12.2 7.752 14.6 14.51h10.7c2.1 0 4.2-.795 5.7-2.286l27.3-27.131 11.3 11.23-27.3 27.131c-4.4 4.472-10.6 6.957-16.9 6.957Zm102.6-37.07c0 5.168-1.7 10.137-4.8 14.311l-14.3 18.982c6.5 11.429 2.5 26.038-9.1 32.498-11.5 6.46-26.2 2.484-32.7-9.044-6.5-11.528-2.5-26.038 9.1-32.498 6.3-3.577 13.9-4.074 20.6-1.49l13.6-18.088c1-1.391 1.6-3.081 1.6-4.77v-58.238h16v58.337ZM256 308c-13.3 0-24-10.634-24-23.852 0-10.137 6.4-19.081 16-22.46v-80.897h16v80.897c12.5 4.373 19 17.988 14.6 30.411C275.2 301.639 266.2 308 256 308Zm80 0c-13.3 0-24-10.634-24-23.852 0-3.578.8-7.056 2.3-10.336l-19.3-19.18c-4.5-4.472-7-10.535-7-16.895v-56.946h16v57.045c0 2.087.8 4.174 2.3 5.665l19.3 19.181c12-5.665 26.3-.597 32 11.23 5.7 11.926.6 26.137-11.3 31.802A24.348 24.348 0 0 1 336 308Zm88-15.901c-10.2 0-19.2-6.361-22.6-15.901h-10.7c-6.4 0-12.5-2.485-17-6.957l-27.3-27.131 11.3-11.23 27.3 27.131c1.5 1.491 3.5 2.286 5.7 2.286h10.7c4.4-12.423 18.1-18.883 30.6-14.51 12.5 4.373 19 17.988 14.6 30.411-3.4 9.54-12.4 15.901-22.6 15.901Z" fill="#000"/></svg>